<svg xmlns="http://www.w3.org/2000/svg" width="48" height="48"><path fill="#FFECB3" d="M42 37c0 2.76-2.24 5-5 5H11c-2.76 0-5-2.24-5-5V11c0-2.76 2.24-5 5-5h26c2.76 0 5 2.24 5 5v26z"/><g fill="#FF1744"><path d="M16.27 16.7h1.5c1.17 0 1.76-.6 1.76-1.74 0-.45-.14-.82-.42-1.1-.27-.28-.67-.43-1.18-.43-.42 0-.78.12-1.1.37-.3.24-.45.54-.45.9H13.2c.02-.7.22-1.35.6-1.9.4-.57.97-1 1.67-1.33.7-.3 1.5-.47 2.34-.47 1.53 0 2.72.35 3.58 1.04.87.7 1.3 1.64 1.3 2.85 0 .58-.17 1.13-.53 1.65s-.88.94-1.57 1.27c.72.26 1.3.66 1.7 1.2.42.52.62 1.18.62 1.97 0 1.2-.47 2.18-1.4 2.9-.94.74-2.17 1.1-3.7 1.1-.88 0-1.7-.17-2.48-.5-.76-.35-1.34-.82-1.73-1.42-.4-.6-.6-1.3-.6-2.05h3.17c0 .4.17.77.5 1.08.34.32.76.47 1.25.47.56 0 1-.16 1.33-.47.33-.3.5-.7.5-1.18 0-.7-.17-1.17-.52-1.46-.34-.28-.8-.43-1.42-.43H16.3V16.7zM35 24.87h-9.5V22.8l4.37-4.6C30.95 17 31.5 16 31.5 15.3c0-.58-.14-1.03-.4-1.34-.25-.3-.62-.45-1.1-.45-.5 0-.88.2-1.18.6-.3.4-.44.92-.44 1.53H25.2c0-.84.22-1.6.64-2.32.42-.7 1-1.25 1.74-1.65.74-.4 1.57-.6 2.5-.6 1.46 0 2.6.34 3.4 1.02.78.68 1.18 1.66 1.18 2.93 0 .54-.1 1.06-.3 1.57s-.5 1.04-.93 1.6c-.42.55-1.1 1.3-2.04 2.24l-1.76 2.04H35v2.43z"/></g><g fill="#455A64"><path d="M23 33.88c0 1.04-.34 1.84-.77 2.4s-1.03.72-1.8.72c-.66 0-1.18-.14-1.58-.65l-.08.65H17v-9h2v3.17c.37-.42.82-.63 1.4-.63.8 0 1.4.3 1.83.85s.77 1.36.77 2.38v.1zm-2-.12c0-.6-.2-1.05-.35-1.3-.17-.26-.4-.4-.75-.4-.45 0-.73.18-.9.5v2.53c.17.33.46.5.9.5.48 0 .77-.23.9-.7.06-.2.2-.6.2-1.14zM26 37h-2v-6h2v6zM31 35.54c-.1.02-.23.03-.38.03-.26 0-.43-.05-.5-.14s-.12-.26-.12-.5V32h1v-1.34h-1V29h-2v1.66h-1V32h1v3.18c0 .65.17 1.14.5 1.46s.82.48 1.5.48c.34 0 .68-.06 1-.15v-1.43z"/><circle cx="25" cy="29" r="1"/></g></svg>