<svg xmlns="http://www.w3.org/2000/svg" width="48" height="48"><path fill="#FFECB3" d="M42 37c0 2.76-2.24 5-5 5H11c-2.76 0-5-2.24-5-5V11c0-2.76 2.24-5 5-5h26c2.76 0 5 2.24 5 5v26z"/><g fill="#455A64"><path d="M23 33.88c0 1.04-.34 1.84-.77 2.4s-1.03.72-1.8.72c-.66 0-1.18-.14-1.58-.65l-.08.65H17v-9h2v3.17c.37-.42.82-.63 1.4-.63.8 0 1.4.3 1.83.85s.77 1.36.77 2.38v.1zm-2-.12c0-.6-.2-1.05-.35-1.3-.17-.26-.4-.4-.75-.4-.45 0-.73.18-.9.5v2.53c.17.33.46.5.9.5.48 0 .77-.23.9-.7.06-.2.2-.6.2-1.14zM26 37h-2v-6h2v6zM31 35.54c-.1.02-.23.03-.38.03-.26 0-.43-.05-.5-.14s-.12-.26-.12-.5V32h1v-1.34h-1V29h-2v1.66h-1V32h1v3.18c0 .65.17 1.14.5 1.46s.82.48 1.5.48c.34 0 .68-.06 1-.15v-1.43z"/><circle cx="25" cy="29" r="1"/></g><g fill="#FF1744"><path d="M21 11.06v2.47h-.53c-1.17 0-2.13.3-2.88.85-.76.57-1.43 1.35-1.6 2.35.7-.7 1.8-1.04 2.87-1.04 1.17 0 2.1.42 2.8 1.28.7.86 1.03 1.98 1.03 3.38 0 .87-.2 1.66-.6 2.4-.4.7-.98 1.28-1.7 1.68-.73.4-1.53.56-2.42.56-.96 0-1.8-.16-2.57-.6-.74-.44-1.33-1.07-1.75-1.9-.42-.8-.64-1.75-.65-2.8V18.4c0-1.4.3-2.66.9-3.78.6-1.12 1.44-2 2.55-2.63 1.1-.63 2.34-.95 3.68-.95H21zm-3.2 7.06c-.43 0-.77.1-1.05.28-.28.2-.75.8-.75 1.65 0 1.57.72 2.57 1.9 2.57.47 0 .87-.2 1.2-.64.3-.43.47-.97.47-1.6 0-.67-.16-1.22-.5-1.63-.3-.42-.75-.63-1.28-.63zM34 19h1v3h-1v3h-3v-3h-5.8l-.2-1.95 5.46-9.02V11H34v8zm-5.6 0H31v-4l-2.6 4z"/></g></svg>