<svg xmlns="http://www.w3.org/2000/svg" width="48" height="48"><path fill="#455A64" d="M40 21l-7.94-2.17 4.08-7.14-2.83-2.84-6.82 3.9L24 5h-4l-2.38 7.44-6.93-3.58-2.84 2.83 3.58 6.93L4 21v4l7.44 2.38-3.58 6.93 2.83 2.84 6.93-3.58L20 41h4l2.38-7.44 6.93 3.58 2.84-2.83-3.73-7.23L40 25v-4zM22 31c-4.42 0-8-3.58-8-8s3.58-8 8-8 8 3.58 8 8-3.58 8-8 8z"/><path fill="#78909C" d="M22 10c-7.18 0-13 5.82-13 13s5.82 13 13 13 13-5.82 13-13-5.82-13-13-13zm0 20c-3.87 0-7-3.13-7-7s3.13-7 7-7 7 3.13 7 7-3.14 7-7 7z"/><path fill="#BBDEFB" d="M23 27h21v17H23z"/><g fill="#3F51B5"><path d="M33.07 29l-3.54 3.53-2.12-2.12-1.4 1.43 3.54 3.53 4.95-4.95zM33.07 35.64l-3.54 3.53-2.12-2.12-1.4 1.42L29.54 42l4.95-4.95zM44 27v-3c0-.55-.45-1-1-1H24c-.55 0-1 .45-1 1v3h21z"/></g></svg>