<svg xmlns="http://www.w3.org/2000/svg" width="48" height="48"><path fill="#4CAF50" d="M44 13H11L1 25l10 12h33c1.66 0 3-1.34 3-3V16c0-1.66-1.34-3-3-3z"/><g fill="#fff"><path d="M10 29v-9h2.4c1.06 0 1.9.33 2.54 1 .63.67.95 1.58.96 2.75v1.46c0 1.2-.3 2.12-.94 2.8s-1.5 1-2.6 1H10zm1.83-7.48v5.97h.55c.6 0 1.04-.17 1.3-.5s.37-.86.4-1.64V23.8c0-.84-.13-1.43-.37-1.76-.23-.33-.63-.5-1.2-.52h-.67zM19.97 25.7h-.9V29H17.2v-9h2.93c.92 0 1.63.24 2.13.7s.75 1.15.75 2.02c0 1.2-.44 2.03-1.32 2.5l1.6 3.7V29h-1.97l-1.36-3.3zm-.9-1.5h1.03c.36 0 .64-.12.82-.36.18-.25.28-.57.28-.97 0-.9-.36-1.36-1.07-1.36h-1.07v2.7zM28.63 27.16h-2.5l-.5 1.84H23.7l2.84-9h1.67l2.87 9H29.1l-.48-1.84zm-2.1-1.52h1.7l-.86-3.2-.85 3.2zM36.6 25.33h-2.85V29h-1.83v-9h5.03v1.5h-3.2v2.32h2.85v1.5zM44 21.52h-2.25V29h-1.84v-7.5h-2.2v-1.5H44v1.52z"/></g></svg>