<svg xmlns="http://www.w3.org/2000/svg" viewBox="0 0 48 48" enable-background="new 0 0 48 48"><path fill="#FFCDD2" d="M38 43H10c-2.2 0-4-1.8-4-4V21c0-2.2 1.8-4 4-4h28c2.2 0 4 1.8 4 4v18c0 2.2-1.8 4-4 4z"/><path fill="#FF1744" d="M38 17H10c-2.2 0-4 1.8-4 4v18c0 2.2 1.8 4 4 4h28c2.2 0 4-1.8 4-4V21c0-2.2-1.8-4-4-4zm-1 22H11c-.6 0-1-.4-1-1V22c0-.6.4-1 1-1h26c.6 0 1 .4 1 1v16c0 .6-.4 1-1 1z"/><g fill="#607D8B"><path d="M16 7h4v10h-4zM22 7h2v10h-2zM12 7h2v10h-2zM26 7h6v10h-6zM34 7v10c2.2 0 2 0 2 0V7h-2z"/></g><g fill="#263238"><path d="M16 21h4v8h-4zM22 21h2v8h-2zM12 21h2v8h-2zM26 21h6v8h-6zM34 21v8c2.2 0 2 0 2 0v-8h-2z"/></g></svg>