<svg xmlns="http://www.w3.org/2000/svg" width="48" height="48"><g fill="#03A9F4"><path d="M6.63 16.6c-.03 0-.05.02-.07.04-1.95 2.73-3.12 4.6-4.34 6.84l-.12.25-.04.08c-.1.22-.07.46.07.7.72 1.12 4.76 2.43 13.78 2.43 6.74 0 13.88-1.08 13.88-3.1 0-1.93-7.05-3.08-13.87-3.08-2.25 0-4.5.3-5.14.4.62-.94 3.18-4.38 3.2-4.4.02-.03.03-.04.03-.06 0-.03-.02-.04-.02-.06-.02-.02-.05-.04-.1-.04H6.64m2.63 7.24c0-.4 2.53-1 6.65-1 4.13 0 6.66.6 6.66 1 0 .42-2.53 1-6.65 1-4.1 0-6.64-.58-6.64-1M11.74 33.95S45.27 35.3 46 23.6c.57-9.48-23.25-8.58-23.27-8.58-.03 0-.2.02-.2.15 0 .1.1.15.18.15 6.62 0 17.37 2.62 17.02 8.3-.3 4.62-8.67 10.03-27.97 10.03-.12 0-.2.08-.2.15 0 .07.05.14.2.15"/></g></svg>