<svg xmlns="http://www.w3.org/2000/svg" width="48" height="48"><g fill="none" stroke="#455A64" stroke-width="2" stroke-linejoin="round"><path d="M27 32l4 3 1 7 3 2M28 26l5 1 1 4 2 2M29 22l5-2-3-5 2-3M21 32l-4 3-1 7-3 2M20 26l-5 1-1 4-2 2M19 22l-5-2 3-5-2-3"/></g><g fill="none" stroke="#4DB6AC" stroke-width="2"><path d="M39 4S25 5 25 14M9 4s14 1 14 10"/></g><path fill="#00695C" d="M27.02 20.8c0 1.68-1.35 3.03-3.02 3.03s-3.02-1.35-3.02-3.02v-5.78c0-1.67 1.35-3.02 3.02-3.02s3.02 1.35 3.02 3.02v5.8z"/><path fill="#26A69A" d="M24 42c-6 0-7-22-7-22 0-1.1 4-2 7-2s7 .9 7 2c0 0-1 22-7 22z"/><path fill="#00897B" d="M23 41.77c.3.15.65.23 1 .23s.7-.08 1-.23V18.03c-.33-.02-.66-.03-1-.03s-.67 0-1 .03v23.74z"/></svg>