<svg xmlns="http://www.w3.org/2000/svg" width="48" height="48"><path fill="#F44336" d="M33.13 8c2.04 3 1.02 7-1.03 7s-3.07-2-3.07-2-3.07-7-8.2-11c2.33 7.93-1 13-5.1 12s0-7 0-7C3.42 13 2.4 45 23.9 45s20.5-30 9.23-37zM24 34.84c-2.48 0-4.5-2.02-4.5-4.5s2.02-4.5 4.5-4.5 4.5 2.02 4.5 4.5-2.02 4.5-4.5 4.5z"/><path fill="#FFC107" d="M24 16c-7.73 0-14 6.27-14 14s6.27 14 14 14 14-6.27 14-14-6.27-14-14-14zm0 17.84c-1.93 0-3.5-1.57-3.5-3.5s1.57-3.5 3.5-3.5 3.5 1.57 3.5 3.5-1.57 3.5-3.5 3.5z"/><g fill="#FFECB3"><path d="M20.56 32.1l-7.78 6.2c1.04 1.44 2.3 2.7 3.78 3.7l6.23-7.9c-1-.52-1.67-1.06-2.24-2zM28.06 28.92L36 22.6c-1-1.47-2.27-2.75-3.7-3.78L26 26.67c.96.57 1.53 1.26 2.04 2.25z"/></g><path fill="#C62828" d="M24 16c7.73 0 14 6.27 14 14s-6.27 14-14 14-14-6.27-14-14 6.27-14 14-14m0-2c-8.82 0-16 7.18-16 16s7.18 16 16 16 16-7.18 16-16-7.18-16-16-16z"/><path fill="#EF6C00" d="M24 25.84c-2.48 0-4.5 2.02-4.5 4.5s2.02 4.5 4.5 4.5 4.5-2.02 4.5-4.5-2.02-4.5-4.5-4.5zm0 6.5c-1.1 0-2-.9-2-2s.9-2 2-2 2 .9 2 2-.9 2-2 2z"/></svg>