<svg xmlns="http://www.w3.org/2000/svg" viewBox="0 0 48 48" enable-background="new 0 0 48 48"><path fill="#9575CD" d="M9 15h30c2.2 0 4 1.8 4 4v18H5V19c0-2.2 1.8-4 4-4z"/><g fill="#673AB7"><path d="M5 37h38v2c0 2.2-1.8 4-4 4H9c-2.2 0-4-1.8-4-4v-2zM37 17h-9c-1.1 0-2-.9-2-2v-5c0-1.1.9-2 2-2h9c1.1 0 2 .9 2 2v5c0 1.1-.9 2-2 2zM11 17h12v4H11z"/></g><path fill="#90CAF9" d="M23 5l-2 1-2-1-2 1-2-1-2 1-2-1v14h12z"/><path fill="#2196F3" d="M28 10h9v5h-9z"/><g fill="#B39DDB"><path d="M10 23h4v4h-4zM16 23h4v4h-4zM22 23h4v4h-4zM28 23h4v4h-4zM34 23h4v4h-4zM10 29h4v4h-4zM16 29h4v4h-4zM22 29h4v4h-4zM28 29h4v4h-4zM34 29h4v4h-4z"/><circle cx="24" cy="40" r="1.5"/></g></svg>