<svg xmlns="http://www.w3.org/2000/svg" width="48" height="48"><path fill="#90CAF9" d="M24 5C13.5 5 5 13.5 5 24s8.5 19 19 19 19-8.5 19-19S34.5 5 24 5zm0 22.5c-1.93 0-3.5-1.57-3.5-3.5s1.57-3.5 3.5-3.5 3.5 1.57 3.5 3.5-1.57 3.5-3.5 3.5z"/><g fill="#CFE8F9"><path d="M19.7 25.28L9 33.95c1.35 2 3.07 3.72 5.07 5.05l8.6-10.73c-1.43-.45-2.53-1.56-2.96-3zM28.25 22.57l10.66-8.65c-1.34-1.98-3.07-3.67-5.08-4.98l-8.6 10.75c1.43.4 2.55 1.47 3.03 2.87z"/></g><path fill="#1E88E5" d="M24 18c-3.3 0-6 2.7-6 6s2.7 6 6 6 6-2.7 6-6-2.7-6-6-6zm0 8c-1.1 0-2-.9-2-2s.9-2 2-2 2 .9 2 2-.9 2-2 2z"/></svg>