<svg xmlns="http://www.w3.org/2000/svg" viewBox="0 0 48 48" enable-background="new 0 0 48 48"><path fill="#3F51B5" d="M27 6l6 6-6 6v-4h-8v-4h8z"/><g fill="#009688"><path d="M18 32c-1.1 0-2-.9-2-2V20h-4v10c0 3.3 2.7 6 6 6h19v-4H18zM40 10l-6 13.4c-.2.4-.5.6-.9.6H18.2c-.4 0-.8-.3-.9-.7L12.4 8.7C11.8 7.1 10.3 6 8.6 6H5v4h3.6l5.5 16.6c.3.8 1 1.4 1.9 1.4h19c.8 0 1.5-.5 1.8-1.2L44.4 10H40z"/></g><circle cx="5" cy="8" r="2" fill="#00695C"/><g fill="#37474F"><circle cx="34" cy="39" r="3"/><circle cx="19" cy="39" r="3"/></g><g fill="#607D8B"><circle cx="34" cy="39" r="1"/><circle cx="19" cy="39" r="1"/></g></svg>