<svg xmlns="http://www.w3.org/2000/svg" width="48" height="48"><path fill="#FDD835" d="M41 26.5l-.6-2.25 3.7-.7-3.67-.82 3.45-1.5-3.76.02 3.03-2.22-3.66.84 2.45-2.84-3.4 1.64 1.78-3.32-2.93 2.36.98-3.62-2.33 2.95.15-3.76-1.62 3.4-.7-3.7-.82 3.67-1.5-3.46.02 3.76-1.6.43-2.62-2.26 1.64 3.4-3.3-1.77 2.34 2.93-3.63-.98 2.96 2.34-3.76-.16 3.4 1.62-3.7.7 3.67.82-2.03.88h-7.82v4.62h17.34L39 30l-.17-.5H39v-.94l.52.27h1.25l-1.42-1.76 3.63.98z"/><path fill="#F57C00" d="M38.27 23.8c-.9 0-1.7.2-2.46.56l2.58 4.77-4-3.88-15 4.38 13.75-5.25-7.63-2.88 9.04 2.08.26.06c0 .02.04-.37.04-.77 0-5.25-4.27-9.5-9.54-9.5-4.37 0-8.05 2.93-9.17 6.94-.75-.7-1.75-1.13-2.85-1.13-2.3 0-4.17 1.86-4.17 4.16 0 .46.1.9.23 1.32-.2-.02-.4-.03-.6-.03-3.16 0-5.73 2.56-5.73 5.72 0 .58.1 1.14.25 1.66h40.17c.37-.75.58-1.6.58-2.5 0-3.15-2.57-5.7-5.73-5.7z"/><g fill="#FFB74D"><path d="M25.5 19c2.85 0 5.45 1.04 7.46 2.76C32.6 17.96 29.4 15 25.5 15s-7.1 2.97-7.46 6.76c2-1.72 4.6-2.76 7.46-2.76zM14.74 22.03c-.35-.6-1-1.03-1.74-1.03-1.1 0-2 .9-2 2 0 .47.17.9.43 1.23.62-1.24 1.85-2.1 3.3-2.2zM7.05 32c.25-2.73 2.48-4.9 5.26-5-.76-.6-1.73-1-2.8-1C7 26 5 28.02 5 30.5c0 .53.1 1.03.27 1.5h1.78z"/></g></svg>