<svg xmlns="http://www.w3.org/2000/svg" viewBox="0 0 48 48" enable-background="new 0 0 48 48"><path fill="#FF8A65" d="M34.3 42H13.7c-1 0-1.8-.7-2-1.6L8 21h32l-3.7 19.4c-.2.9-1 1.6-2 1.6z"/><g fill="#F0744D"><path d="M23 19h2v21h-2zM38.1 19h-1l-4 21h1zM31.9 19h-1.5l-2 21h1.5zM9.9 19h1l4 21h-1zM16.1 19h1.5l2 21h-1.5zM8.4 23l1.7 8.9c1.1 1.2 3.8 3.6 8.8 3.6 11.7 0 13.6-8.1 17.3-8.1.9 0 1.8 1 2.1 2.2l1.3-6.6H8.4z"/></g><path fill="#F8BBD0" d="M12.5 16.9c-2.2-.8-6.5 2.3-6.5 6.7C6 29 10.6 33 19.2 33c8.8 0 11.2-4.2 13.8-5.4 1.6-.8 5.6-1 5.5 1.3 1.5-.6 3.5-2.3 3.5-6.4 0-3.7-3.9-8-9.3-9.3-1-5.4-5.5-8.5-8.7-9.3 0 3.5-5 2.6-5 6.2-7 .1-6.5 6.8-6.5 6.8z"/><g fill="#F48FB1"><path d="M10 17.2c4 7.7 15.9 6 15.9 6s-11.1.2-13.4-6.4c-.7-.2-1.6 0-2.5.4zM34.5 13.9c-.6-.2-1.2-.4-1.8-.6 0 0 0 0 0-.1-2.4 3.7-5.4 4.2-5.4 4.2s4.8.3 7.2-3.5zM19 10.2c-.9 0-1.7.1-2.4.3 2 4.1 7.5 2.9 7.5 2.9s-4.3.3-5.1-3.2z"/></g></svg>