<svg xmlns="http://www.w3.org/2000/svg" width="48" height="48"><path fill="none" stroke="#546E7A" stroke-width="2" stroke-miterlimit="10" d="M24 16c-.24-9.15 13-1 13-11" stroke-linejoin="round"/><path fill="#CFD8DC" d="M45 38c0 3.3-2 5-5 5s-6-8-10-8-7 0-11 0-8 8-11 8-5-1.7-5-5c0 0 0-24 9-24 4 0 5.12 2 7 2 4.14 0 4.86 0 9 0 1.9 0 4-2 8-2 9 0 9 24 9 24z"/><path fill="#fff" d="M41.07 23.6c.78.77.78 2.03 0 2.8l-5.66 5.67c-.77.78-2.03.78-2.8 0l-5.67-5.66c-.78-.77-.78-2.03 0-2.8l5.66-5.67c.77-.78 2.03-.78 2.8 0l5.67 5.66z"/><circle cx="34" cy="21" r="2" fill="#FFC107"/><circle cx="34" cy="28.999" r="2" fill="#8BC34A"/><path fill="#F44336" d="M36 25c0-1.1.9-2 2-2s2 .9 2 2-.9 2-2 2-2-.9-2-2z"/><circle cx="30" cy="25" r="2" fill="#2196F3"/><g fill="#78909C"><path d="M12 20h4v4h-4zM16 24h4v4h-4zM8 24h4v4H8zM12 28h4v4h-4z"/></g></svg>