<svg xmlns="http://www.w3.org/2000/svg" width="48" height="48"><circle cx="24" cy="24" r="15" fill="#eee"/><g fill="#263238"><path d="M22.48 21.41c-1.43.85-1.9 2.7-1.05 4.13.85 1.43 2.7 1.9 4.14 1.08 1.44-.83 1.9-2.67 1.06-4.1-.85-1.44-2.7-1.92-4.14-1.1"/><path d="M35.3 17.44l-9.37 7.8-2.06-3.46z"/></g><g fill="#FF1744"><path d="M12 23H7.05c-.02.33-.05.66-.05 1 0 .34.03.68.05 1.02H12V23zM13.9 30.54l-.96-1.78-4.38 2.33c.3.6.6 1.2.96 1.77l4.37-2.33z"/></g><g fill="#90A4AE"><path d="M17.18 14.08l1.75-1-2.45-4.3c-.6.3-1.2.62-1.76 1l2.46 4.3zM8.8 16.4l4.3 2.5 1-1.76-4.3-2.5c-.36.57-.7 1.16-1 1.77zM36 25h4.95c.02-.33.05-.66.05-1 0-.34-.03-.68-.05-1.02H36V25zM39.56 30.84l-4.42-2.27-.92 1.8 4.4 2.26c.35-.58.67-1.18.94-1.8zM33.47 9.88c-.56-.38-1.15-.7-1.75-1l-2.52 4.26 1.74 1.03 2.53-4.3zM25 7.05c-.33-.02-.66-.05-1-.05-.34 0-.68.03-1.02.05V12H25V7.05z"/></g><path fill="#00ACC1" d="M24 5C13.5 5 5 13.5 5 24s8.5 19 19 19 19-8.5 19-19S34.5 5 24 5zm0 34c-8.28 0-15-6.72-15-15S15.72 9 24 9s15 6.72 15 15-6.72 15-15 15z"/><path fill="#4DD0E1" d="M23.5 23.15c-.46.27-.62.9-.34 1.37.28.47.9.64 1.38.36.48-.28.64-.9.36-1.38-.3-.47-.9-.63-1.4-.35"/></svg>