<svg xmlns="http://www.w3.org/2000/svg" width="48" height="48"><g fill="#455A64"><path d="M27.3 14.2c-.16-.52 0-1.2 0-1.2h-6.27s.33.68.16 1.2c0 .5-5.44 20.8-5.44 20.8H20l1.2-4.4h5.77L28 35h5.77c.17 0-6.46-20.3-6.46-20.8zm-5.6 13.2l2.38-6.95 2.22 6.94h-4.6zM27.82 13h6.46l3.57 14.9s3.9-13.2 4.07-13.7c0-.52-.5-1.2-.5-1.2H46s-.34 1.02-.34 1.2c0 .32-5.44 16.74-5.44 16.74s-.5 1.35-.5 2.03c0 .68.67 1.86.67 1.86H34.6s0-.85 0-1.18c0-.34-5.95-18.96-6.12-19.47-.17-.84-.68-1.18-.68-1.18zM15.08 13c1.7 0-7.98 0-7.98 0s.17.68 0 1.36-3.23 14.38-4.42 19.3C2.5 34.48 2 35 2 35s3.23 0 8.83 0 10.7-7.1 10.7-14.72c0-7.62-7.13-7.28-6.45-7.28zm-4.25 18.78c-2.54 0-2.54 0-2.54 0l3.9-15.56s1.18 0 1.7 0c.5 0 2.88.17 2.88 4.74s-3.4 10.82-5.95 10.82z"/></g></svg>