<svg xmlns="http://www.w3.org/2000/svg" width="48" height="48"><path fill="#3F51B5" d="M38 11V6c0-.55-.45-1-1-1H5c-.55 0-1 .45-1 1v5h34z"/><path fill="#BBDEFB" d="M4 10h34v29H4z"/><g fill="#1976D2"><path d="M15 19h16v2H15zM28.44 23H15v2h10.47c.87-.82 1.87-1.5 2.97-2zM15 15h16v2H15zM23.8 27H15v2h7.76c.28-.7.62-1.38 1.03-2zM11 15h2v2h-2zM11 19h2v2h-2zM11 31h2v2h-2zM15 31v2h7c0-.68.07-1.35.2-2H15zM11 23h2v2h-2zM11 27h2v2h-2z"/></g><path fill="#F44336" d="M44 34c0 5.52-4.48 10-10 10s-10-4.48-10-10 4.48-10 10-10 10 4.48 10 10"/><g fill="#fff"><path d="M39.3 37.18l-2.12 2.12-8.48-8.48 2.12-2.12zM30.82 39.3l-2.12-2.12 8.48-8.48 2.12 2.12z"/></g></svg>