<svg xmlns="http://www.w3.org/2000/svg" viewBox="0 0 48 48" enable-background="new 0 0 48 48"><path fill="#FFC107" d="M42 36H28V16c0-1.1.9-2 2-2h8c.6 0 1.2.3 1.6.8l6 7.7c.3.4.4.8.4 1.2V32c0 2.2-1.8 4-4 4z"/><path fill="#9575CD" d="M6 36h22V12c0-2.2-1.8-4-4-4H7c-2.8 0-5 2.2-5 5v19c0 2.2 1.8 4 4 4z"/><g fill="#37474F"><circle cx="37" cy="36" r="5"/><circle cx="14" cy="36" r="5"/></g><g fill="#78909C"><circle cx="37" cy="36" r="2.5"/><circle cx="14" cy="36" r="2.5"/></g><path fill="#455A64" d="M42 26h-3.6c-.3 0-.5-.1-.7-.3l-1.4-1.4c-.2-.2-.4-.3-.7-.3H32c-.6 0-1-.4-1-1v-6c0-.6.4-1 1-1h5.5c.3 0 .6.1.8.4l4.5 5.4c.1.2.2.4.2.6V25c0 .6-.4 1-1 1z"/><path fill="#fff" d="M15 11c-5 0-9 4-9 9s4 9 9 9 9-4 9-9-4-9-9-9zm0 10c-.6 0-1-.4-1-1s.4-1 1-1 1 .4 1 1-.4 1-1 1z"/><path fill="#37474F" d="M16.9 20.5c0-.2.1-.3.1-.5 0-.7-.4-1.4-1-1.7V13h-2v5.3c-.6.3-1 1-1 1.7 0 1.1.9 2 2 2 .2 0 .3 0 .5-.1l2.3 2.3 1.4-1.4-2.3-2.3zM15 21c-.6 0-1-.4-1-1s.4-1 1-1 1 .4 1 1-.4 1-1 1z"/></svg>