<svg xmlns="http://www.w3.org/2000/svg" width="48" height="48"><path fill="#3F51B5" d="M27 6h18v36H27z"/><path fill="#FFC107" d="M3 27h31v15H3z"/><path fill="#283593" d="M35 25h-1v17h3V27c0-1.1-.9-2-2-2z"/><g fill="#9FA8DA"><path d="M29 8h14v4H29zM29 14h14v2H29zM29 18h14v2H29z"/></g><circle cx="36" cy="35" r="2" fill="#CDDC39"/><g fill="#455A64"><path d="M15 24v-4h7v4h2v-4c0-1.1-.9-2-2-2h-7c-1.1 0-2 .9-2 2v4h2zM34 29v-4c0-1.1-.9-2-2-2H5c-1.1 0-2 .9-2 2v4h31z"/></g><g fill="#78909C"><path d="M25 27h4v5h-4zM8 27h3.88v5H8z"/></g><path fill="#ABB21D" d="M37 33.28c-.3-.18-.63-.28-1-.28-1.1 0-2 .9-2 2s.9 2 2 2c.37 0 .7-.1 1-.28v-3.44z"/></svg>