<svg xmlns="http://www.w3.org/2000/svg" viewBox="0 0 48 48" enable-background="new 0 0 48 48"><path fill="#F44336" d="M24 3l4.3 4.8 6.2-2 1.4 6.3 6.3 1.4-2 6.2L45 24l-4.8 4.3 2 6.2-6.3 1.4-1.4 6.3-6.2-2L24 45l-4.3-4.8-6.2 2-1.4-6.3-6.3-1.4 2-6.2L3 24l4.8-4.3-2-6.2 6.3-1.4 1.4-6.3 6.2 2z"/><g fill="#fff"><path d="M20 32.3l-1.7-1L28 15.7l1.7 1zM19 14c-1.8 0-4 1.1-4 4v1c0 1.8 1.1 4 4 4 2.1 0 4-1.4 4-4v-1c0-2.5-1.7-4-4-4zm1.8 5c0 1.3-.7 2-1.8 2-.9 0-1.8-.6-1.8-2v-1c0-1.4.9-2.1 1.8-2.1 1.4 0 1.8 1.3 1.8 2.1v1zM29 34c1.8 0 4-1.1 4-4v-1c0-1.8-1.1-4-4-4-2.1 0-4 1.4-4 4v1c0 2.5 1.7 4 4 4zm-1.8-5c0-1.3.7-2 1.8-2 .9 0 1.8.6 1.8 2v1c0 1.4-.9 2.1-1.8 2.1-1.4 0-1.8-1.3-1.8-2.1v-1z"/></g></svg>