<svg xmlns="http://www.w3.org/2000/svg" viewBox="0 0 48 48" enable-background="new 0 0 48 48"><path fill="#FF9800" d="M37 43H11c-1.1 0-2-.9-2-2V7c0-1.1.9-2 2-2h26c1.1 0 2 .9 2 2v34c0 1.1-.9 2-2 2z"/><path fill="#C77600" d="M9 23h30v2H9z"/><g fill="#8A5100"><path d="M27.5 31h-7c-.8 0-1.5-.7-1.5-1.5s.7-1.5 1.5-1.5h7c.8 0 1.5.7 1.5 1.5s-.7 1.5-1.5 1.5zM27.5 11h-7c-.8 0-1.5-.7-1.5-1.5S19.7 8 20.5 8h7c.8 0 1.5.7 1.5 1.5s-.7 1.5-1.5 1.5z"/></g><path fill="#37474F" d="M3.56 6.4L6.4 3.55l37.96 37.98-2.82 2.82z"/></svg>