<svg xmlns="http://www.w3.org/2000/svg" viewBox="0 0 48 48" enable-background="new 0 0 48 48"><path fill="#607D8B" d="M6 41h36v2H6z"/><path fill="#F57C00" d="M18.5 15.5l4 12.2 15.1 6.7L44 15.8 31 2.9 18.5 15.5z"/><path fill="#FF9800" d="M6 28.1L19 41l18.5-6.6-19-18.9L6 28.1z"/><path fill="#FFCC80" d="M6 28.1L24 21l7-18.1-17.2 7.9L6 28.1z"/><path fill="#AB5600" d="M31.1 16.9l1.6-4c.2-.6.1-1.3-.3-1.7-.4-.4-.9-.2-1.1.3l-1.6 4c-.2.6-.1 1.3.3 1.7.4.4.9.2 1.1-.3z"/><path fill="#37474F" d="M3.56 6.4L6.4 3.55l37.96 37.98-2.82 2.82z"/></svg>