<svg xmlns="http://www.w3.org/2000/svg" width="48" height="48"><path fill="#FF4081" d="M42 37c0 2.76-2.24 5-5 5H11c-2.76 0-5-2.24-5-5V11c0-2.76 2.24-5 5-5h26c2.76 0 5 2.24 5 5v26z"/><path fill="#fff" d="M33.06 26.27c-.7-.22-1.46.18-1.7.9-.8 2.66-2.3 5.42-2.98 5.57-.5 0-1.23-.43-1.96-1.44 1.68-3.6 2.56-8.1 2.56-11.12 0-8.4-2.13-10.18-3.9-10.18-3.77 0-3.8 9.9-3.8 10 0 1.18.03 2.26.1 3.27-.5-.2-1.1-.32-1.76-.32-3.86 0-5.62 3.8-5.62 7.35 0 3.33 1.87 6.7 6.05 6.7 1.97 0 3.63-1.3 4.97-3.22 1.2 1.23 2.43 1.7 3.36 1.7 2.92 0 4.86-5.24 5.56-7.5.22-.7-.17-1.48-.88-1.7zm-13 8c-3.04 0-3.37-2.78-3.37-3.98 0-.2.02-4.62 2.92-4.62 1.14 0 2.02.9 2.02.9.07.06.14.12.2.17.4 1.9.92 3.43 1.53 4.64-1 1.72-2.17 2.86-3.32 2.86zm4.84-6.34c-.56-1.93-.94-4.53-.94-7.92 0-3.1.66-6.06 1.2-7.06.44.64 1.13 2.65 1.13 7.24 0 2.44-.55 5.27-1.4 7.75z"/></svg>