<svg xmlns="http://www.w3.org/2000/svg" width="48" height="48"><path fill="#42A5F5" d="M24 27c-12.15 0-22 1.34-22 3s9.85 3 22 3c12.16 0 22-1.34 22-3s-9.84-3-22-3zm0 3.97c-2.86 0-5.2-.5-5.2-1.1 0-.6 2.34-1.1 5.2-1.1 2.86 0 5.2.5 5.2 1.1 0 .6-2.34 1.1-5.2 1.1z"/><path fill="#1565C0" d="M21.3 15l2.36 6.43 5.6-6.43h9.48c4.64 0 7.9 2.15 7.15 4.9-.75 2.76-5.18 4.9-9.8 4.9h-6.3s.14-.04.17-.12c.24-.94 1.7-6.26 1.72-6.35 0-.1-.1-.13-.1-.13h4.56s-.1 0-.12.13c-.03.08-.95 3.43-1.15 4.18-.03.1-.17.15-.17.15h1.1c2.6 0 5.04-.83 5.56-2.75.46-1.75-1.26-2.74-4.05-2.74H31.96L21.9 27.1l-3.83-9.76s-.04-.07-.07-.15c0-.03-.1-.1-.2-.07-.07.03-.08.12-.07.14.04.07.04.08.05.12.57.92.47 2 .33 2.5-.76 2.76-5.18 4.9-9.8 4.9H2s.15-.03.17-.12c.26-.94 1.72-6.3 1.73-6.34.02-.1-.1-.14-.1-.14h4.6s-.13.04-.15.13c-.03.08-.96 3.44-1.15 4.18-.03.1-.18.15-.18.15h1.12c2.6 0 5.03-.83 5.54-2.75.47-1.75-1.23-2.74-4.02-2.74H4.1s.1-.06.14-.14c.12-.44.5-1.84.5-1.9.03-.07-.1-.12-.1-.12H21.3z"/></svg>