<svg xmlns="http://www.w3.org/2000/svg" width="48" height="48"><path fill="#546E7A" d="M43.97 16H4.13c-1.65 0-3 1.34-3 3 0 0-1.03 12.93 4 13h37.84c5.03 0 4-13 4-13 0-1.66-1.35-3-3-3z"/><path fill="#FDD835" d="M11.05 25h-7v-2h7v2zm5 4h-2v-2h2v2zm0-4h-2v-2h2v2zm0-4h-2v-2h2v2zm4 8h-2v-2h2v2zm0-4h-2v-2h2v2zm0-4h-2v-2h2v2zm4 8h-2v-2h2v2zm0-4h-2v-2h2v2zm0-4h-2v-2h2v2zm4 8h-2v-2h2v2zm0-4h-2v-2h2v2zm0-4h-2v-2h2v2zm4 8h-2v-2h2v2zm0-4h-2v-2h2v2zm0-4h-2v-2h2v2zm4 8h-2v-2h2v2zm0-4h-2v-2h2v2zm0-4h-2v-2h2v2zm4 8h-2v-2h2v2zm0-4h-2v-2h2v2zm0-4h-2v-2h2v2zm4 8h-2v-2h2v2zm0-4h-2v-2h2v2zm0-4h-2v-2h2v2z"/></svg>