<svg xmlns="http://www.w3.org/2000/svg" width="48" height="48"><path fill="#3F51B5" d="M38 13c0 .55-.45 1-1 1H5c-.55 0-1-.45-1-1V6c0-.55.45-1 1-1h32c.55 0 1 .45 1 1v7z"/><path fill="#BBDEFB" d="M4 10h34v29H4z"/><path fill="#E57373" d="M43.68 25.14l-2.82-2.82c-.43-.43-1.13-.43-1.56 0l-1.32 1.33 4.37 4.38 1.33-1.33c.43-.43.43-1.13 0-1.56"/><path fill="#FF9800" d="M23.47 38.15l12.32-12.3 4.36 4.36-12.3 12.33z"/><path fill="#B0BEC5" d="M42.35 28.03l-2.2 2.2-4.36-4.4 2.17-2.18z"/><path fill="#FFC107" d="M23.47 38.15L22 44l5.85-1.47z"/><path fill="#37474F" d="M22.74 41.04L22 44l2.96-.74z"/><g fill="#1976D2"><path d="M27.8 31H15v2h10.8zM31 27.8V27H15v2h14.8zM15 19h16v2H15zM15 15h16v2H15zM11 15h2v2h-2zM11 19h2v2h-2zM11 31h2v2h-2zM15 31v2h7c0-.68.07-1.35.2-2H15zM11 23h2v2h-2zM11 27h2v2h-2zM15 23h16v2H15z"/></g></svg>