<svg xmlns="http://www.w3.org/2000/svg" viewBox="0 0 48 48" enable-background="new 0 0 48 48"><circle cx="26" cy="26" r="19" fill="#FFC107"/><circle cx="24" cy="24" r="19" fill="#D19E06"/><circle cx="22" cy="22" r="19" fill="#FFC107"/><path fill="#FFE082" d="M22 7C13.7 7 7 13.7 7 22s6.7 15 15 15 15-6.7 15-15S30.3 7 22 7zm12.8 12.8l-2 .3c-.1-.6-.3-1.2-.5-1.8l1.9-.7c.3.8.5 1.5.6 2.2zm-1.4-4l-1.8 1c-.3-.5-.6-1-1-1.5l1.6-1.2c.5.4.9 1 1.2 1.7zM23 9l-.2 2c-.6 0-1.2 0-1.8 0l-.2-2c.8 0 1.5 0 2.2 0zm-4.2.4l.5 1.9c-.6.1-1.2.3-1.7.6l-.8-1.8c.6-.3 1.3-.5 2-.7zm-3.9 1.7l1.1 1.7c-.5.3-1 .7-1.4 1.1l-1.4-1.5c.5-.4 1.1-.9 1.7-1.3zM11.7 14l1.6 1.2c-.4.5-.7 1-1 1.5l-1.8-1c.4-.5.8-1.1 1.2-1.7zm-2 3.8l1.9.6c-.2.6-.3 1.2-.4 1.8l-2-.3c.1-.7.3-1.4.5-2.1zM9 22h2c0 .6.1 1.2.2 1.8l-2 .3c-.1-.6-.2-1.4-.2-2.1zm1.6 6.2c-.3-.6-.6-1.3-.9-2l1.9-.7c.2.6.4 1.1.7 1.7l-1.7 1zm2.6 3.4c-.5-.5-1-1-1.5-1.6l1.6-1.2c.4.5.8.9 1.2 1.3l-1.3 1.5zm3.6 2.3c-.7-.3-1.3-.6-1.9-1l1.1-1.7c.5.3 1 .6 1.6.9l-.8 1.8zm4.1 1.1c-.7-.1-1.4-.2-2.1-.3l.5-1.9c.6.1 1.2.2 1.8.3l-.2 1.9zm2.2 0l-.2-2c.6-.1 1.2-.2 1.8-.3l.5 1.9c-.7.2-1.4.3-2.1.4zm2.5-10.1c0 2.8-2.7 3.2-3.2 3.2v1.6h-1.3v-1.6c-.4 0-3.5-.4-3.5-3.8H20c0 .4 0 2 1.8 2 1.5 0 1.5-1.2 1.5-1.4 0-2.6-5.2-1.5-5.2-5.5 0-2.5 2.2-3.2 3.2-3.2v-1.7h1.3v1.7c.8.1 3 .7 3 3.7h-2.3c0-.6-.2-1.9-1.5-1.9-1.4 0-1.4 1.2-1.4 1.4.1 2.4 5.2 1.4 5.2 5.5zm-.9-13.6l.5-1.9c.7.2 1.4.4 2 .7l-.8 1.8c-.6-.2-1.1-.4-1.7-.6zm2.5 22.6l-.8-1.8c.6-.2 1.1-.5 1.6-.9l1.1 1.7c-.6.4-1.2.7-1.9 1zm.8-21.1l1.1-1.7c.6.4 1.2.8 1.7 1.3l-1.3 1.5c-.5-.4-1-.8-1.5-1.1zm2.8 18.8l-1.4-1.5c.4-.4.9-.9 1.2-1.3l1.6 1.2c-.4.5-.9 1.1-1.4 1.6zm2.6-3.4l-1.8-1c.3-.5.5-1.1.7-1.7l1.9.6c-.1.8-.4 1.5-.8 2.1zm-.5-4.4c.1-.6.1-1.2.1-1.8h2c0 .8-.1 1.5-.2 2.2l-1.9-.4z"/></svg>