<svg xmlns="http://www.w3.org/2000/svg" viewBox="0 0 48 48" enable-background="new 0 0 48 48"><g fill="#3F51B5"><path d="M36 43c-1.6 0-2.9-1.4-2.9-3l.9-23h4l.9 23c0 1.6-1.3 3-2.9 3zM41 5h-2v11c0 .6-.4 1-1 1s-1-.4-1-1V5h-2v11c0 .6-.4 1-1 1s-1-.4-1-1V5h-2s-2 8.1-2 12c0 3.9 3.1 7 7 7s7-3.1 7-7-2-12-2-12z"/></g><path fill="#90CAF9" d="M18 31.6c5.2-1.3 9-6 9-11.6 0-5-2-15-2-15H7S5 15 5 20c0 5.6 3.8 10.3 9 11.6v6.1c0 1.5-1 2.8-2.5 3.1L7 42v1h18v-1l-4.5-1.1c-1.5-.4-2.5-1.7-2.5-3.2v-6.1z"/><path fill="none" stroke="#BBDEFB" stroke-width="2" stroke-miterlimit="10" d="M11.8 25.1C10.1 24 9 22.1 9 20l1-11" stroke-linecap="round"/></svg>