<svg xmlns="http://www.w3.org/2000/svg" width="48" height="48"><path fill="#2196F3" d="M42 37c0 2.76-2.24 5-5 5H11c-2.76 0-5-2.24-5-5V11c0-2.76 2.24-5 5-5h26c2.76 0 5 2.24 5 5v26z"/><g fill="#0D47A1"><path d="M21.88 35.6c1.17 1.18 3.07 1.18 4.24 0l8.5-8.48c1.16-1.17 1.16-3.07 0-4.24l-8.5-8.5c-1.17-1.16-3.07-1.16-4.24 0l-8.5 8.5c-1.16 1.17-1.16 3.07 0 4.24l8.5 8.5zM16 13c3.3 0 6 2.7 6 6s-2.7 6-6 6-6-2.7-6-6 2.7-6 6-6m0-2c-4.4 0-8 3.6-8 8s3.6 8 8 8 8-3.6 8-8-3.6-8-8-8zM42 14.85L24.32 29.9c-.1.1-.22.13-.3.13-.2 0-.34-.13-.34-.13L14 22c.63-.23 3.65-4.2 4-5 1.2 1.58 5.52 7.86 5.57 7.92.07.1.22.2.4.2.14 0 .3-.06.47-.25L37.94 6.1c-.3-.06-.62-.1-.94-.1h-1.46L24 22.04c-1.4-2.02-3.58-5.17-4.4-6.25l-2.08-2.72-1.36 3.12c-.3.62-2.38 3.32-3.1 4.02l-3.02 1.13 2.7 2.2 9.66 7.88c.26.22.82.6 1.6.6.58 0 1.13-.2 1.58-.57L42 17.48v-2.63z"/></g><path fill="#E3F2FD" d="M42 11c0-2.44-1.75-4.47-4.07-4.9l-13.5 18.77c-.38.44-.73.2-.86.05-.05-.06-4.37-6.34-5.57-7.92-.35.8-3.37 4.76-4 5l9.68 7.9s.3.28.64 0L42 14.86V11z"/><circle cx="16" cy="19" r="6" fill="#558B2F"/><path fill="#8BC34A" d="M20.56 15.1c-2.15-2.52-5.94-2.82-8.46-.66-2.52 2.15-2.8 5.94-.66 8.46 2.16 2.52 5.95 2.8 8.46.66 2.52-2.15 2.8-5.94.66-8.46zm.46 2.56s.02 0 .02-.02c.1.3.14.62.16.94-.1-.03-.2-.1-.26-.18-.18-.22-.15-.56.08-.74zm-1.15-1.4c.16-.14.36-.16.54-.08.13.18.23.38.32.58-.02.12-.08.23-.18.3-.23.2-.56.16-.74-.06-.2-.23-.15-.56.07-.75zm-.42 2.2c-.2-.23-.15-.57.07-.75.23-.18.56-.14.75.08.18.23.15.56-.08.75-.24.18-.57.15-.75-.08zm.4 1.52c-.24.2-.57.15-.76-.08-.2-.22-.15-.56.07-.74.23-.2.56-.15.75.08.18.22.15.56-.08.74zm-1.12-5.13c.1-.08.2-.12.33-.12.18.13.35.27.52.43.03.2-.03.38-.2.5-.2.2-.55.15-.73-.07-.18-.23-.15-.57.08-.75zm.4 1.53c.18.22.14.55-.1.74-.2.18-.55.15-.73-.08-.2-.23-.15-.56.08-.74.22-.2.56-.15.74.08zm-5.66 2.26c-.2-.22-.16-.56.07-.74.23-.18.56-.15.75.07.17.23.13.56-.1.75-.22.18-.55.15-.73-.08zm.4 1.53c-.24.2-.57.15-.75-.08-.2-.23-.16-.56.07-.75.22-.18.55-.15.74.08.18.22.15.56-.08.74zm.02-3.73c.22-.2.55-.15.74.08.18.23.15.56-.08.74-.23.2-.56.15-.74-.07-.2-.24-.15-.57.07-.76zm.44 4.32c.22-.18.56-.15.74.07.2.23.15.56-.08.75-.22.18-.56.15-.74-.07-.18-.23-.15-.56.08-.74zm.27-.7c-.17-.24-.14-.57.1-.75.22-.18.55-.15.73.08.2.23.15.56-.07.75-.23.18-.56.14-.75-.08zm.36-1.47c-.18-.23-.15-.57.08-.75.22-.18.56-.15.74.07.2.23.15.57-.07.75-.22.18-.55.15-.74-.08zm.43-2.2c.22-.2.55-.15.73.07.2.23.15.56-.07.75-.23.18-.57.14-.75-.08-.17-.23-.14-.56.1-.74zm.43 4.3c.23-.17.56-.14.75.1.18.2.15.55-.08.73-.23.2-.56.15-.75-.08-.18-.22-.14-.55.08-.74zm.28-.7c-.18-.23-.14-.56.08-.74.23-.2.56-.16.75.07.18.23.15.56-.08.75-.23.18-.56.15-.74-.08zm.36-1.45c-.2-.23-.15-.56.07-.75.23-.18.56-.15.75.08.18.23.15.56-.08.74-.22.2-.56.15-.74-.07zm.42-2.2c.23-.2.56-.15.75.07.18.23.15.56-.08.75s-.56.15-.74-.08c-.18-.24-.14-.57.08-.75zm.45 4.3c.23-.17.56-.13.74.1.2.22.15.55-.07.74-.23.17-.56.13-.75-.1-.18-.22-.15-.55.08-.74zm.27-.7c-.18-.22-.15-.56.08-.74.22-.18.56-.14.74.08.2.23.15.56-.07.75-.23.2-.56.15-.75-.08zm.35-1.45c-.18-.23-.15-.56.08-.74.23-.2.56-.16.74.07.2.23.15.56-.07.75-.23.18-.56.15-.75-.08zm.3-4.26s0 0 0 .02c-.23.18-.56.15-.74-.08-.06-.08-.1-.17-.1-.27.3.1.58.2.86.34zm-1.02.65c.23-.2.56-.16.75.07.18.23.14.56-.08.75-.23.18-.56.14-.75-.08-.18-.23-.14-.56.08-.75zm-1.3-1.18c.34 0 .68.03 1 .1.04.17-.02.36-.17.5-.23.17-.57.14-.75-.1-.1-.14-.14-.33-.07-.5zm-.2 1.22c.23-.18.57-.15.75.08.18.22.15.56-.08.74-.22.18-.55.15-.74-.08-.2-.22-.15-.55.08-.74zm-.32-1.2c.1.2.04.46-.14.62-.23.18-.56.14-.74-.08-.08-.1-.12-.2-.12-.33.33-.1.67-.17 1-.2zM14.25 15c.23-.2.56-.16.75.06.17.23.13.56-.1.75-.22.2-.55.16-.74-.07-.18-.22-.14-.55.08-.74zm-.3-.9c-.02.12-.08.23-.17.3-.16.13-.37.15-.54.08.23-.14.47-.27.7-.37zm-1.2.94c.24-.2.57-.15.75.07.18.24.14.57-.1.76-.2.18-.55.14-.73-.08-.2-.22-.15-.56.08-.74zm-.34 1.45c.22-.2.56-.16.74.06.2.23.15.57-.08.75-.22.2-.56.16-.74-.07-.18-.22-.15-.55.08-.74zm-.43 2.2c-.18-.24-.15-.57.08-.76.22-.18.56-.14.74.08.18.23.14.56-.08.75-.23.18-.57.14-.75-.08zm.4 1.52c-.23.18-.56.15-.75-.08-.18-.22-.15-.55.08-.74.23-.18.56-.15.74.07.2.23.15.56-.07.75zm-.27-4.83c.04.18-.02.38-.18.5-.1.08-.2.12-.32.12.15-.22.32-.43.5-.63zm-.75 1.04c.1.02.22.08.3.17.18.24.15.58-.08.76-.18.15-.44.15-.63.02.1-.32.24-.64.4-.94zm-.54 1.44c.2-.02.37.04.5.2.18.2.14.55-.08.74-.15.12-.36.14-.53.07 0-.35.04-.7.1-1.02zm.07 2.4c-.1-.3-.14-.6-.16-.92.1.03.18.08.25.16.18.23.15.56-.08.75zm1.15 1.4c-.16.12-.36.14-.54.07-.12-.2-.22-.4-.3-.6 0-.1.07-.22.17-.3.23-.18.56-.15.74.08.18.22.14.56-.08.75zm1.14 1.4c-.1.08-.23.12-.35.1-.16-.12-.33-.26-.5-.4-.03-.2.04-.4.2-.52.22-.2.55-.15.74.08.18.22.15.56-.08.74zm-.4-1.53c-.18-.23-.14-.56.08-.74.23-.18.56-.15.75.08.17.23.14.56-.1.75-.22.18-.55.15-.73-.08zm.85 2.14c.02-.02.03-.03.04-.03.22-.2.56-.16.74.07.07.1.1.2.12.3-.3-.1-.6-.2-.9-.35zm1.06-.66c-.23.18-.56.14-.75-.08-.17-.23-.14-.57.1-.75.22-.17.55-.14.73.1.2.22.15.55-.07.73zm1.3 1.2c-.35 0-.68-.03-1-.1-.05-.2 0-.4.17-.52.23-.2.56-.15.75.08.13.15.15.36.07.54zm.2-1.25c-.23.17-.57.14-.75-.1-.18-.2-.14-.55.08-.73.23-.2.56-.15.75.07.18.23.15.56-.08.75zm.33 1.2c-.12-.2-.06-.47.13-.63.23-.2.56-.15.74.08.1.1.13.23.12.36-.34.1-.68.18-1 .2zm1.15-1.26c-.23.18-.56.15-.75-.08-.18-.22-.15-.56.08-.74.23-.2.56-.15.74.07.2.22.15.55-.07.74zm.3.9c0-.1.07-.23.18-.3.16-.15.4-.17.57-.07-.24.15-.5.27-.76.38zm1.2-.95c-.24.18-.57.14-.75-.1-.18-.2-.15-.55.08-.73.22-.2.55-.15.74.07.18.23.15.57-.08.75zm.34-1.46c-.24.18-.57.15-.75-.08-.2-.22-.15-.56.07-.74.23-.2.56-.15.75.07.18.22.15.55-.08.74zm.3 1.13c-.06-.2 0-.4.17-.55.1-.08.23-.12.35-.12-.15.24-.33.47-.53.67zm.77-1.07c-.12-.02-.24-.08-.33-.2-.18-.22-.15-.55.08-.73.2-.16.46-.15.65-.02-.1.33-.23.64-.4.95zm.02-1.64c-.2-.23-.16-.56.07-.74.16-.14.37-.15.55-.08 0 .34-.04.67-.1 1-.2.04-.4-.02-.53-.18z"/></svg>