<svg xmlns="http://www.w3.org/2000/svg" viewBox="0 0 48 48" enable-background="new 0 0 48 48"><path fill="#FFC107" d="M42 36H28V16c0-1.1.9-2 2-2h8c.6 0 1.2.3 1.6.8l6 7.7c.3.4.4.8.4 1.2V32c0 2.2-1.8 4-4 4z"/><path fill="#9575CD" d="M6 36h22V12c0-2.2-1.8-4-4-4H7c-2.8 0-5 2.2-5 5v19c0 2.2 1.8 4 4 4z"/><g fill="#37474F"><circle cx="37" cy="36" r="5"/><circle cx="14" cy="36" r="5"/></g><g fill="#78909C"><circle cx="37" cy="36" r="2.5"/><circle cx="14" cy="36" r="2.5"/></g><path fill="#455A64" d="M42 26h-3.6c-.3 0-.5-.1-.7-.3l-1.4-1.4c-.2-.2-.4-.3-.7-.3H32c-.6 0-1-.4-1-1v-6c0-.6.4-1 1-1h5.5c.3 0 .6.1.8.4l4.5 5.4c.1.2.2.4.2.6V25c0 .6-.4 1-1 1z"/><g fill="#fff"><path d="M8.6 22.1H6.4V25H5v-7h3.9v1.2H6.4V21h2.2v1.1zM12.3 22.4h-.7V25h-1.4v-7h2.3c1.2 0 2.2.6 2.2 2.1s-.9 1.9-1 2l1.2 2.9h-1.5l-1.1-2.6zm-.7-1.1h.8c.8 0 .8-.7.8-1 0-.2 0-1.1-.8-1.1h-.8v2.1zM19.7 22h-2.2v1.9h2.6V25h-4v-7h4v1.2h-2.6v1.7h2.2V22zM25.1 22h-2.2v1.9h2.6V25h-4v-7h4v1.2h-2.6v1.7h2.2V22z"/></g></svg>