<svg xmlns="http://www.w3.org/2000/svg" width="48" height="48"><circle cx="24" cy="24" r="17" fill="#fff"/><path fill="#455A64" d="M21 41v-5.5c0-.28.22-.5.5-.5s.5.22.5.5V41h2v-6.5c0-.28.22-.5.5-.5s.5.22.5.5V41h2v-5.5c0-.28.22-.5.5-.5s.5.22.5.5V41h1.76c.15-.27.24-.63.24-1.08v-3.94c0-2.16-1.9-5.23-4.25-5.23h-2.5c-2.34 0-4.25 3.07-4.25 5.23v3.94c0 .45.1.8.24 1.08H21z"/><path fill="none" stroke="#455A64" stroke-width=".25" stroke-miterlimit="10" d="M34.62 26.2s1.9-.33 3.04-.3c1.15 0 2.44.35 2.44.35M34.14 26.8s2.18-.2 3.08-.16c1.26.03 2.6.42 2.6.42M14.56 26.1s-2.7-.26-3.55-.26c-.84 0-2.44.25-3.2.47M15.18 26.93s-2.84-.26-4.13-.1c-1.55.18-2.9 1-2.9 1" stroke-linecap="round" stroke-linejoin="round"/><path fill="#455A64" d="M14.17 23.46c0-4.42 4.62-8.46 10.33-8.46 5.7 0 10.33 4.04 10.33 8.46 0 4.42-3.32 7.54-10.33 7.54-7 0-10.33-3.12-10.33-7.54zM28.6 16.3s1.66-2.3 4.76-2.3c1.23 1.23.38 4.76-.02 5.82l-4.75-3.5zM20.4 16.3S18.73 14 15.65 14c-1.24 1.23-.4 4.76 0 5.82l4.75-3.5zM20.1 35.86s-2.34 0-2.78 0c-1.22 0-2.3-.53-2.83-1.5-.6-1.08-1.15-2.3-2.6-3.3-.25-.2-.1-.45.4-.4.5.06 1.42.17 2.13 1.1.7.93 1.48 2 2.8 2 1.32 0 2.75.03 3.48-.92l-.6 3.02z"/><path fill="#00BCD4" d="M24 5C13.5 5 5 13.5 5 24s8.5 19 19 19 19-8.5 19-19S34.5 5 24 5zm0 35.03c-8.84 0-16.03-7.2-16.03-16.03S15.17 7.97 24 7.97 40.03 15.17 40.03 24 32.83 40.03 24 40.03z"/></svg>