<svg xmlns="http://www.w3.org/2000/svg" viewBox="0 0 48 48" enable-background="new 0 0 48 48"><circle cx="24" cy="24" r="19" fill="#4CAF50"/><g fill="#FFCC80"><path d="M16.6 18.8l5.6 2.8 1.8-3.2c.9-1.6 1.4-3.5 1.4-5.4v-.9c0-1.2-1-2.2-2.2-2.2h-.5c-.4 0-.7.3-.8.7l-.5 2c-.2.9-.7 1.7-1.3 2.4l-3.5 3.8zM29.8 34c-.7 0-10.8 0-10.8 0-2.2 0-4-1.8-4-4v-8c0-2.2 1.8-4 4-4h13c1.1 0 2 .9 2 2s-.5 1.5-.5 2 .5.9.5 2-.8 1.8-.9 2.3c-.2.6.1 1.6-.2 2.3-.3.7-.9 1.1-1 1.8s.3 1.5 0 2.3c-.4.6-1.1 1.3-2.1 1.3z"/></g></svg>