<svg xmlns="http://www.w3.org/2000/svg" width="48" height="48"><path fill="#FF3D00" d="M42 37c0 2.76-2.24 5-5 5H11c-2.76 0-5-2.24-5-5V11c0-2.76 2.24-5 5-5h26c2.76 0 5 2.24 5 5v26z"/><g fill="#fff"><path d="M23.06 25.94l-1-.77c-.32-.24-.75-.58-.75-1.18 0-.62.44-1 .8-1.37 1.18-.9 2.36-1.9 2.36-3.95 0-2.1-1.35-3.16-2-3.77h1.74L26 14h-5.78c-1.5 0-3.43.23-5.02 1.53-1.2 1-1.8 2.42-1.8 3.7 0 2.13 1.7 4.32 4.66 4.32.28 0 .6-.03.9-.06-.14.32-.28.6-.28 1.06 0 .86.45 1.38.84 1.87-1.26.1-3.62.23-5.36 1.27-1.65.97-2.16 2.38-2.16 3.36C12 33.1 13.96 35 18.03 35c4.83 0 7.38-2.62 7.38-5.2 0-1.9-1.1-2.84-2.34-3.86zm-3.68-3.17c-2.4 0-3.5-3.05-3.5-4.9 0-.7.13-1.46.6-2.03.46-.56 1.25-.9 1.97-.9C20.78 14.93 22 18 22 20c0 .5-.07 1.36-.7 2-.46.44-1.2.77-1.92.77zm.03 11.08c-3 0-4.93-1.4-4.93-3.36 0-1.97 1.8-2.63 2.4-2.85 1.2-.4 2.7-.44 2.96-.44.28 0 .42 0 .65.04 2.13 1.48 3.05 2.23 3.05 3.63 0 1.7-1.43 2.98-4.12 2.98zM31 20h2v8h-2zM28 23h8v2h-8z"/></g></svg>