<svg xmlns="http://www.w3.org/2000/svg" viewBox="0 0 48 48" enable-background="new 0 0 48 48"><path fill="#4CAF50" d="M24 9.9l-4.3 8.4L24 29.6l13-6.3V9.9H24z"/><path fill="#81C784" d="M11 9.9v13.4l13 6.3V9.9H11z"/><path fill="#A5D6A7" d="M11 9.9l13 5.7 13-5.7L24 5 11 9.9z"/><g fill="#FFB74D"><path d="M40.7 16c-1 .2-1.7 1.1-1.7 2.1V27l-2.6 4.5 1.3-2.4c.5-.9.3-2-.5-2.6-1-.8-2.4-.5-3 .6l-4.4 8c-.6 1-.9 2.2-.9 3.4V43h8v-3l5.3-9.7c.5-.9.7-1.9.7-2.9V18c.1-1.2-1-2.2-2.2-2zM7.3 16c1 .2 1.7 1.1 1.7 2.1V27l2.6 4.5-1.3-2.4c-.5-.9-.3-2 .5-2.6 1-.8 2.4-.5 3 .6l4.4 8c.6 1 .9 2.2.9 3.4V43h-8v-3l-5.3-9.7c-.5-.8-.8-1.8-.8-2.8V18c0-1.2 1.1-2.2 2.3-2z"/></g><g fill="#FF9800"><path d="M38.3 30.5c.5-.5.7-1.2.7-1.9V27l-5.4 9 4.7-5.5zM9.7 30.5c-.4-.5-.7-1.2-.7-1.9V27l5.4 9-4.7-5.5z"/></g><g fill="#FFCC80"><path d="M37.2 28.5c-.3.7-.9.4-1.6.1-.7-.3-1.1-.7-.8-1.3.3-.7 1.2-.9 1.8-.6.7.3 1 1.1.6 1.8zM10.8 28.5c.3.7.9.4 1.6.1.7-.3 1.1-.7.8-1.3-.3-.7-1.2-.9-1.8-.6s-1 1.1-.6 1.8z"/></g></svg>