<svg xmlns="http://www.w3.org/2000/svg" width="48" height="48"><path fill="#78909C" d="M45 14H3c-1.1 0-2 .9-2 2v9s0 2 2 2c3 0 4 6 7 6h28c3 0 4-6 7-6 2 0 2-2 2-2v-9c0-1.1-.9-2-2-2z"/><path fill="#37474F" d="M45 23l-4 3H7l-4-3v-2h42z"/><g fill="#FDD835"><path d="M10 24h3v2h-3zM15 24h3v2h-3zM20 24h3v2h-3zM25 24h3v2h-3zM30 24h3v2h-3zM35 24h3v2h-3z"/></g><g fill="#546E7A"><path d="M5 16h3v3H5zM10 16h3v3h-3zM15 16h3v3h-3zM20 16h3v3h-3zM25 16h3v3h-3zM30 16h3v3h-3zM35 16h3v3h-3zM40 16h3v3h-3zM10 28h3v3h-3zM15 28h3v3h-3zM20 28h3v3h-3zM25 28h3v3h-3zM30 28h3v3h-3zM35 28h3v3h-3z"/></g></svg>