<svg xmlns="http://www.w3.org/2000/svg" width="48" height="48"><circle cx="24" cy="24" r="19" fill="#2196F3"/><g fill="#E3F2FD"><path d="M23.76 31.14c-.73 0-1.33.24-1.8.72-.47.47-.7 1.07-.7 1.8 0 .72.23 1.3.7 1.78.44.47 1.05.7 1.8.7s1.35-.23 1.8-.7c.47-.47.7-1.06.7-1.78 0-.73-.23-1.33-.7-1.8-.46-.47-1.08-.72-1.8-.72zM29.18 14.6c-1.2-1.07-2.9-1.6-5.1-1.6-2.2 0-3.9.56-5.16 1.67-1.2 1.06-1.83 2.5-1.9 4.33H17v1h4.5v-.7c.03-.83.27-1.48.73-1.95.46-.47 1.07-.7 1.84-.7 1.62 0 2.42.87 2.42 2.6 0 .6-.16 1.14-.47 1.66-.3.53-.94 1.2-1.87 2.04-.94.83-1.6 1.67-1.94 2.53-.35.85-.53 2.08-.53 3.53h3.97l.06-1.02c.12-1 .57-1.9 1.36-2.65l1.25-1.2c.98-.94 1.67-1.8 2.06-2.58.4-.78.6-1.6.6-2.5 0-1.9-.6-3.4-1.82-4.46z"/></g></svg>