<svg xmlns="http://www.w3.org/2000/svg" width="48" height="48"><path fill="#FFCC80" d="M6 18v19c0 2.76 2.24 5 5 5h26c2.76 0 5-2.24 5-5V18H6z"/><path fill="#795548" d="M42 18v-7c0-2.76-2.24-5-5-5H11c-2.76 0-5 2.24-5 5v7h36z"/><circle cx="24" cy="25" r="8" fill="#37474F"/><path fill="#FFF3E0" d="M24 34c-4.96 0-9-4.04-9-9s4.04-9 9-9 9 4.04 9 9-4.04 9-9 9zm0-16c-3.86 0-7 3.14-7 7s3.14 7 7 7 7-3.14 7-7-3.14-7-7-7z"/><circle cx="24" cy="25" r="5" fill="#546E7A"/><circle cx="22" cy="23" r="2" fill="#BBDEFB"/><path fill="#F44336" d="M8 7.02V18h2V6.1c-.74.15-1.42.48-2 .92z"/><path fill="#FFEB3B" d="M11 6c-.34 0-.68.04-1 .1V18h2V6h-1z"/><path fill="#8BC34A" d="M12 6h2v12h-2z"/><path fill="#2196F3" d="M14 6h2v12h-2z"/><g fill="#3E2723"><path d="M32 9h6v6h-6zM16 17.5c0 .83-.67 1.5-1.5 1.5h-5c-.83 0-1.5-.67-1.5-1.5S8.67 16 9.5 16h5c.83 0 1.5.67 1.5 1.5z"/></g></svg>