<svg xmlns="http://www.w3.org/2000/svg" width="48" height="48"><path fill="#A1887F" d="M31.92 6c-9.23 0-10.5 8.56-13.9 12.1C14.64 21.56 6 24.1 6 32.12c0 1.85.84 3.82 3 5.88 1.12 1.1 2.7 1.62 4.54 1.62 4.74 0 11.3-3.4 16.96-9.25 7.84-8.13 10.9-17.87 6.88-21.77-1.9-1.86-3.74-2.6-5.46-2.6z"/><g fill="#6D4C41"><path d="M37.63 8.88c3.62 4.07.53 13.55-7.13 21.5-5.65 5.83-12.22 9.24-16.96 9.24-1.37 0-2.58-.28-3.58-.87 6.96 5.63 17.16 3.7 24.8-4.2 7.77-8.06 10.12-18.3 2.87-25.67zM25.28 17.7c-.6 1.7-1.13 3.67-2.65 5.25-1.45 1.5-3.98 2.6-5.53 3.38-4 1.97-5.48 6.2-5.2 9.06.9-3.23 4.04-5.16 6.66-6.44 1.72-.85 4.64-1.8 6.5-3.73 2-2.05 2.3-4.46 3-6.3.93-2.46 3.88-6.12 6.65-7.73-2.48-.07-7.54 1.34-9.42 6.5z"/></g></svg>