<svg xmlns="http://www.w3.org/2000/svg" viewBox="0 0 48 48" enable-background="new 0 0 48 48"><path fill="#607D8B" d="M29 6V5H19v1c0 2.4-1.6 4.4-4 4.9L5 13c0 15 7 30 7 30h24s7-15 7-30l-10-2.2c-2.4-.4-4-2.5-4-4.8z"/><g fill="#FFB300"><path d="M32 9.4c-.5 0-1 .4-1.1.9-.2 3.7-3.3 6.6-7 6.6s-6.8-2.9-7-6.6c0-.6-.5-1-1.1-.9-.6 0-1 .5-.9 1.1.3 4.7 4.2 8.5 9 8.5s8.7-3.7 9-8.5c.1-.6-.3-1-.9-1.1zM24 29.3L20 24l4-4 4 4z"/></g><path fill="#FFC107" d="M24 20c-.6 0-1-.4-1-1v-2c0-.6.4-1 1-1s1 .4 1 1v2c0 .6-.4 1-1 1z"/><path fill="#F44336" d="M24 21l3 3-3 4-3-4z"/><path fill="#B71C1C" d="M27 24l-3 4v-4z"/><path fill="#E57373" d="M24 21l-3 3h3z"/></svg>