<svg xmlns="http://www.w3.org/2000/svg" width="48" height="48"><path fill="#1565C0" d="M31.36 28.43l-3.56-3.56-3.46 3.48-3.55 3.55-.7.7c-1.16 1.15-3.03 1.16-4.2 0-1.14-1.15-1.14-3 0-4.17l-3.56-3.56c-2.05 2.07-2.75 4.98-2.08 7.6-2.12.5-3.7 2.42-3.7 4.7 0 2.67 2.16 4.83 4.82 4.83 2.3 0 4.2-1.6 4.7-3.74 2.62.65 5.5-.05 7.56-2.1l.7-.7 3.55-3.56 3.46-3.47z"/><path fill="#FF9800" d="M42.52 10.82C42.52 8.16 40.36 6 37.7 6c-2.43 0-4.44 1.8-4.77 4.16-2.7-.8-5.76-.13-7.9 2l-.7.7-3.54 3.57-3.5 3.47 3.57 3.56 3.47-3.48 3.55-3.55.7-.7c1.15-1.15 3-1.15 4.16 0 1.15 1.15 1.15 3 0 4.17l3.56 3.56c2.12-2.13 2.8-5.16 2.02-7.86 2.36-.3 4.18-2.33 4.18-4.78z"/><path fill="#F44336" d="M38.42 32.4c.64-2.6-.06-5.5-2.1-7.54l-.7-.7-3.56-3.55-3.46-3.47-3.55 3.56 3.46 3.47 3.56 3.55.7.7c1.16 1.16 1.15 3.03 0 4.18-1.14 1.15-3 1.15-4.16 0l-3.55 3.57c2.16 2.15 5.25 2.8 7.98 1.97.44 2.2 2.4 3.86 4.72 3.86 2.65 0 4.8-2.16 4.8-4.82 0-2.43-1.78-4.45-4.13-4.77z"/><path fill="#4CAF50" d="M20.08 31.2l3.55-3.56-3.47-3.48-3.56-3.55-.7-.7c-1.14-1.14-1.14-3.02 0-4.17 1.16-1.15 3.03-1.16 4.18 0l3.55-3.57c-2.02-2.02-4.86-2.73-7.45-2.12C15.8 7.74 13.82 6 11.42 6c-2.66 0-4.8 2.16-4.8 4.82 0 2.3 1.6 4.22 3.74 4.7-.82 2.73-.15 5.8 2 7.95l.7.7 3.54 3.55 3.48 3.48z"/></svg>