<svg xmlns="http://www.w3.org/2000/svg" viewBox="0 0 48 48" enable-background="new 0 0 48 48"><path fill="#607D8B" d="M23 7v32.5c0 .8-.7 1.5-1.5 1.5s-1.5-.7-1.5-1.5V39c0-.6-.4-1-1-1s-1 .4-1 1v.5c0 1.9 1.6 3.5 3.5 3.5s3.5-1.6 3.5-3.5V7h-2z"/><path fill="#F50057" d="M43 26s-4.2-15-19-15S5 26 5 26s2-2 4.5-2 4.5 2 4.5 2 2.2-2 5-2 5 2 5 2 2.2-2 5-2 5 2 5 2 2-2 4.5-2 4.5 2 4.5 2z"/><path fill="#D9004D" d="M43 26s-4.2-15-19-15c8 0 10 15 10 15s2-2 4.5-2 4.5 2 4.5 2z"/><path fill="#FF4081" d="M24 11C9.2 11 5 26 5 26s2-2 4.5-2 4.5 2 4.5 2 0-15 10-15z"/><path fill="#03A9F4" d="M41 11c0 1.1-.9 2-2 2s-2-.9-2-2 2-4 2-4 2 2.9 2 4zM33 8c0 1.1-.9 2-2 2s-2-.9-2-2 2-4 2-4 2 2.9 2 4zM7 11c0 1.1.9 2 2 2s2-.9 2-2-2-4-2-4-2 2.9-2 4zM15 8c0 1.1.9 2 2 2s2-.9 2-2-2-4-2-4-2 2.9-2 4z"/></svg>