<svg xmlns="http://www.w3.org/2000/svg" width="48" height="48"><path fill="none" stroke="#546E7A" stroke-width="2" stroke-miterlimit="10" d="M24 21c0-12.9 13-.96 13-14" stroke-linejoin="round"/><path fill="#8CBCD6" d="M2 21h44v20H2z"/><g fill="#E1F5FE"><path d="M4 23h4v4H4zM10 23h4v4h-4zM16 23h4v4h-4zM22 23h4v4h-4zM28 23h4v4h-4zM34 23h4v4h-4zM40 23h4v4h-4zM4 35h4v4H4zM10 35h4v4h-4zM16 35h16v4H16zM34 35h4v4h-4zM40 35h4v4h-4zM4 29h7v4H4zM13 29h4v4h-4zM19 29h4v4h-4zM25 29h4v4h-4zM31 29h4v4h-4zM37 29h7v4h-7z"/></g></svg>