<svg xmlns="http://www.w3.org/2000/svg" viewBox="0 0 48 48" enable-background="new 0 0 48 48"><path fill="#E0F2F1" d="M42 16H6v1.9h1.8c.4 0 .6.4.7.6l1.1 8.8c.2 2.1 2.1 3.8 4.2 3.8h20.3c2.1 0 4-1.7 4.2-3.8l1.1-8.8c.1-.4.3-.7.7-.7h1.8L42 16z"/><g fill="#F44336"><path d="M24 8.7C14.2 8.7 7.6 16 7.6 16h32.7c.1 0-6.5-7.3-16.3-7.3zM25.8 10.6h-3.6l-1.1-2.9c0-.4.2-.7.7-.7h4.5c.4 0 .7.4.5.7l-1 2.9zM39 42H9c-1.3 0-2.3-1.3-1.9-2.6l1.8-6c.3-.8 1-1.4 1.9-1.4h26.4c.9 0 1.7.6 1.9 1.4l1.8 6c.4 1.3-.6 2.6-1.9 2.6z"/></g><path fill="#fff" d="M24 34c-1.7 0-3 1.3-3 3s1.3 3 3 3 3-1.3 3-3-1.3-3-3-3zm1.8 2.1L23 38.9c-.2.2-.6.2-.9 0-.2-.2-.2-.6 0-.9l2.8-2.8c.2-.2.6-.2.9 0 .3.2.3.6 0 .9z"/><path fill="#80CBC4" d="M36 22c-.7 0-1.3.2-1.8.6-.7-1-1.9-1.6-3.2-1.6-1.1 0-2.1.5-2.9 1.2-.9-1.3-2.4-2.2-4.1-2.2s-3.2.9-4.1 2.2c-.8-.7-1.8-1.2-2.9-1.2-1.3 0-2.5.6-3.2 1.6-.5-.4-1.1-.6-1.8-.6-1.7 0-3 1.3-3 3l1.2 3.5c.5 1.5 1.9 2.5 3.5 2.5h20.7c1.6 0 3-1 3.5-2.5L39 25c0-1.7-1.3-3-3-3z"/><path fill="#009688" d="M43 16h-1.9c-1.3 0-2.4 1-2.7 2.4l-1.2 9.4C37 29 35.9 30 34.7 30H13.3c-1.2 0-2.3-1-2.5-2.2l-1.2-9.4C9.3 17 8.2 16 6.9 16H5v2h1.9c.4 0 .7.4.7.7L8.8 28c.2 2.2 2.2 4 4.5 4h21.4c2.2 0 4.2-1.8 4.4-4l1.2-9.3c.1-.4.4-.8.8-.8H43V16z"/></svg>