<svg xmlns="http://www.w3.org/2000/svg" viewBox="0 0 48 48" enable-background="new 0 0 48 48"><path fill="#FB8C00" d="M40 31h-4L17 21h4z"/><path fill="#607D8B" d="M13.1 33c-.7 0-1.2-.5-1.3-1.2L9.2 9.7C9 8.1 7.7 7 6.2 7H5v2h1.2c.5 0 .9.4 1 .9l2.6 22.2c.2 1.7 1.6 2.9 3.3 2.9H24v-2H13.1z"/><g fill="#FFC107"><path d="M14 31h29v4H14zM14 17h29v4H14z"/></g><g fill="#37474F"><circle cx="38" cy="38" r="3"/><circle cx="19" cy="38" r="3"/></g><path fill="#FF9800" d="M17 31h4l19-10h-4z"/><g fill="#607D8B"><circle cx="38" cy="38" r="1"/><circle cx="19" cy="38" r="1"/></g></svg>