<svg xmlns="http://www.w3.org/2000/svg" viewBox="0 0 48 48" enable-background="new 0 0 48 48"><path fill="#607D8B" d="M13.1 33c-.7 0-1.2-.5-1.3-1.2L9.2 9.7C9 8.1 7.7 7 6.2 7H5v2h1.2c.5 0 .9.4 1 .9l2.6 22.2c.2 1.7 1.6 2.9 3.3 2.9H24v-2H13.1z"/><path fill="#FFC107" d="M14 31h29v4H14z"/><g fill="#37474F"><circle cx="38" cy="38" r="3"/><circle cx="19" cy="38" r="3"/></g><g fill="#607D8B"><circle cx="38" cy="38" r="1"/><circle cx="19" cy="38" r="1"/></g><path fill="#FF9800" d="M38 31H18c-1.1 0-2-.9-2-2V9c0-1.1.9-2 2-2h20c1.1 0 2 .9 2 2v20c0 1.1-.9 2-2 2z"/><path fill="#8A5100" d="M30 11h-4c-.6 0-1-.4-1-1s.4-1 1-1h4c.6 0 1 .4 1 1s-.4 1-1 1zM30 24h-4c-.6 0-1-.4-1-1s.4-1 1-1h4c.6 0 1 .4 1 1s-.4 1-1 1z"/><path fill="#C77600" d="M16 18h24v2H16z"/></svg>