<svg xmlns="http://www.w3.org/2000/svg" viewBox="0 0 48 48" enable-background="new 0 0 48 48"><path fill="#a0f" d="M24 3l4.3 4.8 6.2-2 1.4 6.3 6.3 1.4-2 6.2L45 24l-4.8 4.3 2 6.2-6.3 1.4-1.4 6.3-6.2-2L24 45l-4.3-4.8-6.2 2-1.4-6.3-6.3-1.4 2-6.2L3 24l4.8-4.3-2-6.2 6.3-1.4 1.4-6.3 6.2 2z"/><g fill="#fff"><path d="M17.8 29h-2l-3-6.6V29h-2V19h2l3 6.6V19h2v10zM25.3 24.7h-3.1v2.7h3.7V29h-5.7V19h5.7v1.7h-3.7V23h3.1v1.7zM34.2 25.3l.9-6.3h2l-1.8 10h-2l-1.2-5.9-1 5.9h-2l-1.8-10h2l.9 6.3 1.2-6.3h1.7l1.1 6.3z"/></g></svg>