<svg xmlns="http://www.w3.org/2000/svg" viewBox="0 0 48 48" enable-background="new 0 0 48 48"><path fill="#00B8D4" d="M24 3l4.3 4.8 6.2-2 1.4 6.3 6.3 1.4-2 6.2L45 24l-4.8 4.3 2 6.2-6.3 1.4-1.4 6.3-6.2-2L24 45l-4.3-4.8-6.2 2-1.4-6.3-6.3-1.4 2-6.2L3 24l4.8-4.3-2-6.2 6.3-1.4 1.4-6.3 6.2 2z"/><g fill="#fff"><path d="M17.5 30.2h-2.1V33H14v-6.8h3.8v1.2h-2.4v1.8h2.1v1zM21.1 30.5h-.7V33H19v-6.8h2.2c1.2 0 2.2.6 2.2 2.1 0 1.4-.8 1.8-1 1.9l1.2 2.8h-1.5l-1-2.5zm-.7-1.2h.8c.8 0 .8-.7.8-1 0-.2 0-1-.8-1h-.8v2zM28.4 30h-2.2v1.8h2.5V33h-3.9v-6.8h3.9v1.2h-2.5V29h2.2v1zM33.6 30h-2.2v1.8H34V33h-3.9v-6.8H34v1.2h-2.5V29h2.2v1z"/></g><path fill="#fff" d="M25.9 23.7h-2.7v-8.4l-3.2 1v-2.2l5.6-2h.3v11.6z"/></svg>