<svg xmlns="http://www.w3.org/2000/svg" width="48" height="48"><path fill="#455A64" d="M42 18c0 1.66-1.34 3-3 3H9c-1.66 0-3-1.34-3-3V8c0-1.66 1.34-3 3-3h30c1.66 0 3 1.34 3 3v10z"/><path fill="#BBDEFB" d="M6 15h36v23H6z"/><circle cx="10" cy="11" r="2" fill="#8BC34A"/><circle cx="16" cy="11" r="2" fill="#FFEB3B"/><path fill="#FAFAFA" d="M40 12c0 .55-.45 1-1 1H22c-.55 0-1-.45-1-1v-2c0-.55.45-1 1-1h17c.55 0 1 .45 1 1v2z"/><path fill="#3F51B5" d="M30.5 30h-11c-.18 0-.35-.1-.44-.26s-.1-.35 0-.5l5.5-8c.2-.3.68-.3.86 0l5.5 8c.1.15.1.34.02.5s-.26.26-.44.26zM14.13 40.15C24.73 43.28 27 37.25 27 30h-4c0 7.38-2.24 10.64-8.87 10.15z"/></svg>