<svg xmlns="http://www.w3.org/2000/svg" width="48" height="48"><path fill="#00BCD4" d="M42 37c0 2.76-2.24 5-5 5H11c-2.76 0-5-2.24-5-5V11c0-2.76 2.24-5 5-5h26c2.76 0 5 2.24 5 5v26z"/><g fill="#fff"><path d="M14 25.48V29h-2V19h3.77c.98 0 1.77.3 2.35.92.6.6.88 1.4.88 2.4s-.3 1.74-.87 2.3-1.38.86-2.4.86H14zm.02-1.68h1.75c.38 0 .68-.12.9-.38.2-.25.3-.62.3-1.1 0-.5-.1-.9-.32-1.2-.22-.28-.5-.43-.86-.44H14v3.12zM31 25.48V29h-2V19h3.77c.98 0 1.77.3 2.35.92.6.6.88 1.4.88 2.4s-.3 1.74-.87 2.3-1.38.86-2.4.86H31zm.02-1.68h1.75c.38 0 .68-.12.9-.38.2-.25.3-.62.3-1.1 0-.5-.1-.9-.32-1.2-.2-.28-.5-.43-.86-.44H31v3.12zM27 29h-2v-4.28h-3.02V29H20V19h1.98v4H25v-4h2v10z"/></g></svg>