<svg xmlns="http://www.w3.org/2000/svg" viewBox="0 0 48 48" enable-background="new 0 0 48 48"><path fill="#F8BBD0" d="M34.7 5.4c-.3-.5-1-.6-1.4-.1-1.7 1.9-5.9 5.2-9.2 5.2-3.4 0-8.2-3.4-10.2-5.3-.4-.4-1.2-.3-1.4.2C10.9 8.4 7 17.1 7 31.8V35c0 4.4 3.5 8 7.9 8h18.2c4.4 0 7.9-3.6 7.9-8v-3.1c0-15.1-4.5-23.7-6.3-26.5z"/><ellipse cx="24" cy="25" fill="#F9E3EA" rx="7" ry="6"/><g fill="#37474F"><circle cx="32" cy="17" r="3"/><circle cx="16" cy="17" r="3"/></g><path fill="#9E3157" d="M24 24l-3-3h6z"/><g fill="#F48FB1"><path d="M7.8 21c-2.1.7-3.4 1.3-3.5 1.4-1.9.9-2.8 3.3-1.9 5.3.8 1.8 2.8 2.7 4.7 2.1 0-3.3.3-6.2.7-8.8zM43.7 22.4c-.1-.1-1.5-.7-3.6-1.4.4 2.6.7 5.6.8 8.9.4.1.8.2 1.2.2 1.5 0 2.9-.9 3.5-2.3.9-2.1.1-4.5-1.9-5.4z"/><ellipse cx="35.3" cy="37" transform="matrix(.816 .579 -.579 .816 27.93 -13.631)" rx="5.3" ry="6.3"/><ellipse cx="12.7" cy="37" transform="matrix(-.816 .579 -.579 -.816 44.381 59.854)" rx="5.3" ry="6.3"/><path d="M30.2 10.9s1.7-.7 3.4-2.5c.2-.2.6-.1.7.2.8 1.5 1.5 3.4 1.5 3.4-2.2-1.2-5.6-1.1-5.6-1.1zM17.8 10.9s-1.7-.7-3.4-2.5c-.2-.2-.6-.1-.7.2-.8 1.5-1.5 3.4-1.5 3.4 2.2-1.2 5.6-1.1 5.6-1.1z"/></g></svg>