<svg xmlns="http://www.w3.org/2000/svg" viewBox="0 0 48 48" enable-background="new 0 0 48 48"><path fill="#1976D2" d="M12 35h19v4H12z"/><path fill="#2196F3" d="M29 44H14c-1.1 0-2-.9-2-2v-3h19v3c0 1.1-.9 2-2 2z"/><path fill="#607D8B" d="M35 15H9v18c0 2.2 1.8 4 4 4h18c2.2 0 4-1.8 4-4V15z"/><path fill="#546E7A" d="M31 4H13c-2.2 0-4 1.8-4 4v8h26V8c0-2.2-1.8-4-4-4z"/><path fill="#9CCC65" d="M31 13H13c-.6 0-1-.4-1-1V8c0-.6.4-1 1-1h18c.6 0 1 .4 1 1v4c0 .6-.4 1-1 1z"/><g fill="#33691E"><path d="M28 9h2v2h-2zM24 9h2v2h-2z"/></g><path fill="#FF5252" d="M32 22h-2c-.6 0-1-.4-1-1v-2c0-.6.4-1 1-1h2c.6 0 1 .4 1 1v2c0 .6-.4 1-1 1z"/><g fill="#E0E0E0"><path d="M14 22h-2c-.6 0-1-.4-1-1v-2c0-.6.4-1 1-1h2c.6 0 1 .4 1 1v2c0 .6-.4 1-1 1zM20 22h-2c-.6 0-1-.4-1-1v-2c0-.6.4-1 1-1h2c.6 0 1 .4 1 1v2c0 .6-.4 1-1 1zM14 28h-2c-.6 0-1-.4-1-1v-2c0-.6.4-1 1-1h2c.6 0 1 .4 1 1v2c0 .6-.4 1-1 1zM20 28h-2c-.6 0-1-.4-1-1v-2c0-.6.4-1 1-1h2c.6 0 1 .4 1 1v2c0 .6-.4 1-1 1zM14 34h-2c-.6 0-1-.4-1-1v-2c0-.6.4-1 1-1h2c.6 0 1 .4 1 1v2c0 .6-.4 1-1 1zM20 34h-2c-.6 0-1-.4-1-1v-2c0-.6.4-1 1-1h2c.6 0 1 .4 1 1v2c0 .6-.4 1-1 1zM26 22h-2c-.6 0-1-.4-1-1v-2c0-.6.4-1 1-1h2c.6 0 1 .4 1 1v2c0 .6-.4 1-1 1zM26 28h-2c-.6 0-1-.4-1-1v-2c0-.6.4-1 1-1h2c.6 0 1 .4 1 1v2c0 .6-.4 1-1 1zM26 34h-2c-.6 0-1-.4-1-1v-2c0-.6.4-1 1-1h2c.6 0 1 .4 1 1v2c0 .6-.4 1-1 1z"/></g><path fill="#81C784" d="M32 28h-2c-.6 0-1-.4-1-1v-2c0-.6.4-1 1-1h2c.6 0 1 .4 1 1v2c0 .6-.4 1-1 1z"/><path fill="#FFC107" d="M32 34h-2c-.6 0-1-.4-1-1v-2c0-.6.4-1 1-1h2c.6 0 1 .4 1 1v2c0 .6-.4 1-1 1z"/><path fill="#455A64" d="M37 32h-2V9h2c1.1 0 2 .9 2 2v19c0 1.1-.9 2-2 2z"/><path fill="#263238" d="M24 37h3v7h-3z"/></svg>