<svg xmlns="http://www.w3.org/2000/svg" viewBox="0 0 48 48" enable-background="new 0 0 48 48"><path fill="#4CAF50" d="M25 5L6.2 23.8c-1.6 1.6-1.6 4.1 0 5.7l12.3 12.3c1.6 1.6 4.1 1.6 5.7 0L43 23V9c0-2.2-1.8-4-4-4H25zm12 8c-1.1 0-2-.9-2-2s.9-2 2-2 2 .9 2 2-.9 2-2 2z"/><path fill="#fff" d="M26.2 30c-2.8 2.8-5.8.5-6.4 0l-1.6 1.6-1.2-1.2 1.6-1.6c-.4-.5-3.1-3.8.4-7.2l2.3 2.3c-.4.4-2 2-.2 3.7 1.5 1.5 2.7.3 2.9.1 2.5-2.5-3.6-6.6.4-10.6 2.4-2.4 5.4-1 6.4-.1l1.7-1.7 1.3 1.3-1.7 1.7c.7.9 2.3 3.7-.7 6.7l-2.3-2.3c.6-.6 1.7-2.1.5-3.4-1.4-1.4-2.6-.2-2.8 0-2.7 2.6 3.4 6.7-.6 10.7z"/></svg>