<svg xmlns="http://www.w3.org/2000/svg" viewBox="0 0 48 48" enable-background="new 0 0 48 48"><path fill="#3F51B5" d="M25 5L6.2 23.8c-1.6 1.6-1.6 4.1 0 5.7l12.3 12.3c1.6 1.6 4.1 1.6 5.7 0L43 23V9c0-2.2-1.8-4-4-4H25zm12 8c-1.1 0-2-.9-2-2s.9-2 2-2 2 .9 2 2-.9 2-2 2z"/><path fill="#FFF59D" d="M28.2 23.3L27 24.5l-2.7-2.7-1 1 2.7 2.7-1.2 1.2-2.6-2.7c-.5.6-2.4 2.3.1 4.8.7.7 1.4 1.1 1.8 1.3l-1.6 2.2c-.4-.2-1.7-1.2-2.3-1.8-1.8-1.8-3.7-5.5-.3-8.8l-1.3-1.3 1.2-1.2 1.3 1.3 1-1-1.3-1.3L22 17l1.4 1.4c.9-.9 4.7-3.7 8.9.5.7.7 1.4 1.7 1.6 2.1l-2.2 1.6c-.1-.3-.5-1-1.2-1.7-2.3-2.3-4.3-.5-4.8-.2l2.5 2.6z"/></svg>