<svg xmlns="http://www.w3.org/2000/svg" viewBox="0 0 48 48" enable-background="new 0 0 48 48"><path fill="#FFC107" d="M32.8 43l-.1-3.4-6.7.6 8.4-4.4 1.1 3.7 7.5-.9L32.8 43zM9.4 5l-.9 7.5 3.7 1.1L7.8 22l.5-6.6-3.3-.2L9.4 5z"/><g fill="#03A9F4"><path d="M19.45 36.85l3.46 3.47-2.74 2.75-3.47-3.46zM7.8 25.1l3.47 3.45-2.75 2.76-3.47-3.46z"/></g><path fill="#F44336" d="M35.9 12.1c-4.2-4.2-11-4.2-15.2 0l-13 13 3.4 3.4c3.8-3.8 11.9-11.9 13-13 2.3-2.3 6-2.3 8.3 0s2.3 6 0 8.3c-1 1-9.2 9.2-13 13l3.4 3.4 13-13c4.2-4.1 4.2-10.9.1-15.1z"/></svg>