<svg xmlns="http://www.w3.org/2000/svg" width="48" height="48"><path fill="#0277BD" d="M24.05 5c-1.56 0-2.64.14-3.94.37-3.84.67-4.54 2.07-4.54 4.67V14h9v2H10.87c-2.64 0-4.94 1.24-5.67 4.22-.83 3.42-.87 5.56 0 9.12C5.85 32 7.3 34 9.93 34h3.63v-5.1c0-2.97 2.7-5.9 5.77-5.9h7.23c2.53 0 5-1.86 5-4.38v-8.58c0-2.44-1.76-4.27-4.2-4.67.05 0-1.77-.38-3.3-.37zm-5 4c.83 0 1.5.68 1.5 1.5 0 .84-.67 1.5-1.5 1.5-.82 0-1.5-.66-1.5-1.5 0-.82.68-1.5 1.5-1.5z"/><path fill="#FFC107" d="M23.08 43c1.55 0 2.63-.14 3.93-.37 3.86-.67 4.56-2.07 4.56-4.67V34h-9v-2h13.71c2.63 0 4.94-1.24 5.67-4.22.83-3.42.86-5.56 0-9.12C41.27 16 39.83 14 37.2 14h-3.64v5.1c0 2.97-2.68 5.9-5.76 5.9h-7.24c-2.52 0-5 1.86-5 4.38v8.58c0 2.44 1.76 4.27 4.22 4.67-.06 0 1.76.38 3.3.37zm4.98-4c-.82 0-1.5-.68-1.5-1.5 0-.84.68-1.5 1.5-1.5.84 0 1.5.66 1.5 1.5 0 .82-.66 1.5-1.5 1.5z"/></svg>