<?xml version="1.0" encoding="utf-8"?><!-- Generator: Adobe Illustrator 18.1.1, SVG Export Plug-In . SVG Version: 6.00 Build 0)  --><svg xmlns="http://www.w3.org/2000/svg" xmlns:xlink="http://www.w3.org/1999/xlink" version="1.1" id="Layer_1" x="0px" y="0px" viewBox="0 0 48 48" enable-background="new 0 0 48 48" xml:space="preserve">
<g>
	<rect x="10" y="10" fill="#3F51B5" width="4" height="4"/>
	<rect x="10" y="32" fill="#3F51B5" width="4" height="4"/>
	<rect x="32" y="10" fill="#3F51B5" width="4" height="4"/>
	<rect x="20" y="20" fill="#3F51B5" width="4" height="4"/>
	<rect x="24" y="20" fill="#3F51B5" width="4" height="4"/>
	<rect x="24" y="28" fill="#3F51B5" width="4" height="4"/>
	<rect x="38" y="24" fill="#3F51B5" width="4" height="4"/>
	<rect x="8" y="24" fill="#3F51B5" width="4" height="4"/>
	<rect x="16" y="24" fill="#3F51B5" width="4" height="4"/>
	<rect x="12" y="20" fill="#3F51B5" width="4" height="4"/>
	<rect x="20" y="24" fill="#3F51B5" width="4" height="4"/>
	<g>
		<rect x="24" y="32" fill="#3F51B5" width="4" height="6"/>
	</g>
	<g>
		<rect x="30" y="30" fill="#3F51B5" width="4" height="4"/>
	</g>
	<g>
		<rect x="20" y="31" fill="#3F51B5" width="4" height="4"/>
	</g>
	<g>
		<rect x="20" y="38" fill="#3F51B5" width="4" height="4"/>
	</g>
	<g>
		<rect x="30" y="24" fill="#3F51B5" width="4" height="4"/>
	</g>
	<g>
		<rect x="26" y="24" fill="#3F51B5" width="4" height="4"/>
	</g>
	<g>
		<rect x="30" y="38" fill="#3F51B5" width="4" height="4"/>
	</g>
	<g>
		<rect x="26" y="24" fill="#3F51B5" width="4" height="4"/>
	</g>
	<g>
		<rect x="38" y="30" fill="#3F51B5" width="4" height="4"/>
	</g>
	<g>
		<rect x="38" y="38" fill="#3F51B5" width="4" height="4"/>
	</g>
	<g>
		<rect x="34" y="34" fill="#3F51B5" width="4" height="4"/>
	</g>
	<g>
		<rect x="22" y="24" fill="#3F51B5" width="4" height="4"/>
	</g>
	<g>
		<rect x="34" y="20" fill="#3F51B5" width="4" height="4"/>
	</g>
	<path fill="#3F51B5" d="M26,4v16h16V4H26z M38,16h-8V8h8V16z"/>
	<path fill="#3F51B5" d="M4,20h16V4H4V20z M8,8h8v8H8V8z"/>
	<path fill="#3F51B5" d="M4,42h16V26H4V42z M8,30h8v8H8V30z"/>
</g>
</svg>