<svg xmlns="http://www.w3.org/2000/svg" width="48" height="48"><path fill="#546E7A" d="M30.87 20c-.78.77-2.05.77-2.83 0-.78-.8-.78-2.06 0-2.84l10.6-10.6c.8-.8 2.06-.8 2.83 0 .8.78.8 2.04 0 2.82l-10.6 10.6z"/><path fill="#B0BEC5" d="M31.25 9.06l7.78 7.78-8.5 8.48-7.76-7.78z"/><path fill="#F44336" d="M23.87 13.6l-11.7 11.72-1.1 7.4 4.24 4.24 7.47-1.03 11.7-11.7z"/><g fill="#D32F2F"><path d="M15.3 36.96l-4.23-4.24-4.92 6.34 2.82 2.82 6.34-4.92zM21.4 16.13L32 26.73l-1.4 1.43-10.62-10.6z"/></g></svg>