<svg xmlns="http://www.w3.org/2000/svg" width="48" height="48"><g fill="#00BCD4"><path d="M7 16h8v8H7zM7 24h8v8H7zM15 24h8v8h-8zM7 32h8v8H7zM15 32h8v8h-8zM23 32h8v8h-8zM34 7h7v7h-7zM40.64 26.06L34.17 28l-1.93-6.48 6.47-1.93zM28.1 12.37l-4 5.26-5.25-4 3.98-5.25z"/></g><g fill="#00838F"><path d="M16 25H6V15h10v10zm-8-2h6v-6H8v6zM16 33H6V23h10v10zm-8-2h6v-6H8v6zM24 33H14V23h10v10zm-8-2h6v-6h-6v6zM16 41H6V31h10v10zm-8-2h6v-6H8v6zM24 41H14V31h10v10zm-8-2h6v-6h-6v6zM32 41H22V31h10v10zm-8-2h6v-6h-6v6zM42 15h-9V6h9v9zm-7-2h5V8h-5v5zM33.5 29.25l-2.5-8.4 8.38-2.5 2.5 8.38-8.38 2.52zm-.02-7.05l1.36 4.56 4.56-1.37-1.37-4.56-4.55 1.36zM24.3 19.03l-6.86-5.2L22.64 7l6.85 5.2-5.2 6.85zm-4.05-5.58l3.66 2.78 2.8-3.67L23 9.8l-2.77 3.65z"/></g></svg>