<svg xmlns="http://www.w3.org/2000/svg" width="48" height="48"><circle cx="24" cy="24" r="19" fill="#78909C"/><path fill="#37474F" d="M24 10c-7.73 0-14 6.27-14 14s6.27 14 14 14 14-6.27 14-14-6.27-14-14-14zm4 22c0 .55-.45 1-1 1h-6c-.55 0-1-.45-1-1v-2c0-.55.45-1 1-1h6c.55 0 1 .45 1 1v2z"/><g fill="#FDD835"><path d="M24 9C15.72 9 9 15.72 9 24s6.72 15 15 15 15-6.72 15-15S32.28 9 24 9zm0 28c-7.18 0-13-5.82-13-13s5.82-13 13-13 13 5.82 13 13-5.82 13-13 13z"/><circle cx="19.5" cy="19.5" r="1.5"/><circle cx="28.5" cy="19.5" r="1.5"/><circle cx="30.5" cy="25.5" r="1.5"/><circle cx="17.5" cy="25.5" r="1.5"/></g></svg>