<svg xmlns="http://www.w3.org/2000/svg" viewBox="0 0 48 48" enable-background="new 0 0 48 48"><path fill="#F44336" d="M24 3l4.3 4.8 6.2-2 1.4 6.3 6.3 1.4-2 6.2L45 24l-4.8 4.3 2 6.2-6.3 1.4-1.4 6.3-6.2-2L24 45l-4.3-4.8-6.2 2-1.4-6.3-6.3-1.4 2-6.2L3 24l4.8-4.3-2-6.2 6.3-1.4 1.4-6.3 6.2 2z"/><g fill="#fff"><path d="M22.2 26.4H20l-.4 1.6h-1.7l2.5-8h1.5l2.5 8h-1.7l-.5-1.6zM20.3 25h1.5l-.7-2.8-.8 2.8zM27.2 26.6H30V28h-4.4v-8h1.6v6.6zM35.6 24.5h-2.5v2.1h3V28h-4.6v-8h4.6v1.3h-3v1.9h2.5v1.3zM15.1 25.9c0-1.7-3.4-1.1-3.4-3.8 0-.8.5-2.2 2.5-2.2 2.2 0 2.5 1.9 2.5 2.5h-1.6c0-.6-.3-1.1-.9-1.1-.9 0-.9.8-.9.9 0 1.5 3.4.9 3.4 3.7 0 1.2-.8 2.2-2.5 2.2-1.4 0-2.8-.9-2.8-2.6H13c0 .5.1 1.3 1.1 1.3.5 0 1-.1 1-.9z"/></g></svg>