<svg xmlns="http://www.w3.org/2000/svg" width="48" height="48"><path fill="#B0BEC5" d="M8 25h32c1.1 0 2 .9 2 2v9c0 1.1-.9 2-2 2H8V25z"/><path fill="#37474F" d="M10 27h30v9H10z"/><path fill="#18FFFF" d="M30 27h2v9h-2z"/><g fill="#00838F"><path d="M40 38H8v2c0 1.1.9 2 2 2h30c1.1 0 2-.9 2-2v-4c0 1.1-.9 2-2 2zM31 8c0-2-1.48-2.56-2.83-1.4C28.17 6.6 7.4 23.67 7 24s-1 1-1 2 0 10 0 10c0 1.1.9 2 2 2 0 0 20.18-15.67 21.35-16.64S31 20.06 31 17.98C31 14.73 31 9 31 8z"/></g><circle cx="38" cy="40" r="1" fill="#FFEB3B"/></svg>