<svg xmlns="http://www.w3.org/2000/svg" width="48" height="48"><path fill="#3F51B5" d="M8 10l6-6h25c.55 0 1 .45 1 1v37c0 .55-.45 1-1 1H9c-.55 0-1-.45-1-1V10z"/><path fill="#fff" fill-rule="evenodd" d="M21 33l-.32 1.05s-3.08 0-3.47 0c-.42 0-1.53 0-1.53.43 0 .78 4 .67 4 2.67 0 1.35-1.22 1.7-2.6 1.8-.58.05-1.2 0-1.8 0-1.9 0-3.27-.1-3.27-.1l.62-1.77s1.08.14 1.77.14c.65 0 2.55.2 2.55-.22 0-.7-3.15-.67-3.15-2.5 0-.9 1.77-1.4 3.28-1.4 1.54 0 3.93-.1 3.93-.1zm6.7.98l-3.25.92c.03.15.03.25 0 .4-.36 1.2-3.57 1.35-3.57 1.35L20.13 39s8.06-.04 8.84-3.28c.17-.6-.4-1.24-1.28-1.74zm-2.82-.86c-1.45-.18-2.82-.1-2.82-.1l-.3 1s.85 0 1.57.2l1.55-1.1zm1.4.3l-2.32 1.02c.1.04.2.1.26.14l2.65-.96c-.2-.1-.4-.14-.6-.2l.02-.02z" clip-rule="evenodd"/><path fill="#FDD835" fill-rule="evenodd" d="M35 6h3v7h-3zM30 6h3v7h-3zM25 6h3v7h-3zM20 6h3v7h-3zM10 10.85V13h3V7.84zM15 6h3v7h-3z" clip-rule="evenodd"/></svg>