<svg xmlns="http://www.w3.org/2000/svg" width="48" height="48"><path fill="#3F51B5" d="M34 13c0 .55-.45 1-1 1H5c-.55 0-1-.45-1-1V6c0-.55.45-1 1-1h28c.55 0 1 .45 1 1v7z"/><path fill="#BBDEFB" d="M37.05 31.5c0-2.32-1.22-4.35-3.05-5.5V10H4v29h30v-2c1.83-1.15 3.05-3.18 3.05-5.5z"/><g fill="#616161"><path d="M35.1 37.47l1.42-1.42L43 42.53l-1.4 1.4zM30.55 23c-4.7 0-8.5 3.8-8.5 8.5s3.8 8.5 8.5 8.5 8.5-3.8 8.5-8.5-3.8-8.5-8.5-8.5zm0 15c-3.6 0-6.5-2.9-6.5-6.5s2.9-6.5 6.5-6.5 6.5 2.9 6.5 6.5-2.9 6.5-6.5 6.5z"/></g><path fill="#37474F" d="M37.45 39.8l1.4-1.4L43 42.52l-1.4 1.4z"/><g fill="#1976D2"><path d="M21.02 27H13v2h7.3c.18-.7.42-1.36.72-2zM13 15h16v2H13zM24.35 23H13v2h9.26c.6-.76 1.3-1.43 2.1-2zM13 19h16v2H13zM9 31h2v2H9zM20 31.5c0-.17.02-.33.03-.5H13v2h7.12c-.07-.5-.12-1-.12-1.5zM9 27h2v2H9zM9 15h2v2H9zM9 23h2v2H9zM9 19h2v2H9z"/></g></svg>