<svg xmlns="http://www.w3.org/2000/svg" width="48" height="48"><g fill="#00838F"><path d="M41.94 11.3l-1.76-3.17-4.48 1.34L34.78 5h-3.7l-.9 4.45-4.44-1.37-1.78 3.15 3.34 2.75-3.36 2.72 1.76 3.17 4.48-1.35.9 4.48h3.7l.92-4.45 4.43 1.37 1.8-3.15-3.35-2.75 3.36-2.72zM37.56 14c0 2.48-2.07 4.5-4.62 4.5s-4.62-2.02-4.62-4.5c0-2.5 2.07-4.5 4.62-4.5s4.62 2 4.62 4.5zM39.44 14c0-3.6-2.9-6.5-6.5-6.5s-6.5 2.9-6.5 6.5 2.9 6.5 6.5 6.5 6.5-2.9 6.5-6.5zm-3.5 0c0 1.66-1.35 3-3 3s-3-1.34-3-3 1.34-3 3-3 3 1.34 3 3z"/></g><g fill="#00ACC1"><path d="M28 27.7l-2.15-3.87-5.47 1.64L19.26 20h-4.52l-1.1 5.43-5.43-1.67-2.17 3.86 4.08 3.35L6 34.31l2.15 3.87 5.47-1.64L14.74 42h4.52l1.1-5.43 5.43 1.67 2.17-3.86-4.08-3.36L28 27.7zM22.64 31c0 3.04-2.52 5.5-5.64 5.5s-5.64-2.46-5.64-5.5 2.52-5.5 5.64-5.5 5.64 2.46 5.64 5.5zM25 31c0-4.42-3.58-8-8-8s-8 3.58-8 8 3.58 8 8 8 8-3.58 8-8zm-4 0c0 2.2-1.8 4-4 4s-4-1.8-4-4 1.8-4 4-4 4 1.8 4 4z"/></g></svg>