<svg xmlns="http://www.w3.org/2000/svg" viewBox="0 0 48 48" enable-background="new 0 0 48 48"><path fill="#607D8B" d="M25.4 5.6c-.8-.8-2-.8-2.8 0l-12 12c-.8.8-.8 2 0 2.8.4.4.9.6 1.4.6s1-.2 1.4-.6l12-12c.8-.8.8-2 0-2.8z"/><path fill="#455A64" d="M37.4 17.6l-12-12c-.8-.8-2-.8-2.8 0-.8.8-.8 2 0 2.8l12 12c.4.4.9.6 1.4.6s1-.2 1.4-.6c.8-.8.8-2 0-2.8z"/><path fill="#D32F2F" d="M37.4 41H10.6c-1 0-1.8-.7-2-1.6L5 21h38l-3.7 18.4c-.2.9-1 1.6-1.9 1.6z"/><path fill="#F44336" d="M43 23H5c-1.1 0-2-.9-2-2v-2c0-1.1.9-2 2-2h38c1.1 0 2 .9 2 2v2c0 1.1-.9 2-2 2z"/><path fill="#7D1313" d="M25 25h-2s0 10.8 0 11c0 .6.4 1 1 1s1-.4 1-1c0-.2 0-11 0-11zM29 25h-2s0 10.8 0 11c0 .6.4 1 1 1s1-.4 1-1c0-.2 0-11 0-11zM33 25h-2s0 10.8 0 11c0 .6.4 1 1 1s1-.4 1-1c0-.2 0-11 0-11zM17 25h-2s0 10.8 0 11c0 .6.4 1 1 1s1-.4 1-1c0-.2 0-11 0-11zM21 25h-2s0 10.8 0 11c0 .6.4 1 1 1s1-.4 1-1c0-.2 0-11 0-11z"/></svg>