<svg xmlns="http://www.w3.org/2000/svg" width="48" height="48"><path fill="#3F51B5" d="M37.93 13c0 .55-.44 1-1 1H5c-.55 0-1-.45-1-1V6c0-.55.45-1 1-1h31.94c.55 0 1 .45 1 1v7z"/><path fill="#BBDEFB" d="M4 10h33.93v29H4z"/><path fill="#fff" d="M23.55 37s4.47-6 9.98-6 9.98 6 9.98 6-4.46 6-9.97 6-9.98-6-9.98-6z"/><path fill="#90A4AE" d="M33.53 31c5.5 0 9.98 6 9.98 6s-4.46 6-9.97 6-9.98-6-9.98-6 4.47-6 9.98-6m0-2c-6.44 0-11.38 6.53-11.58 6.8l-.9 1.2.9 1.2c.2.27 5.14 6.8 11.58 6.8s11.37-6.53 11.58-6.8L46 37l-.9-1.2c-.2-.27-5.13-6.8-11.57-6.8z"/><g fill="#1976D2"><path d="M23.82 31h-8.84v2h6.73c.57-.6 1.28-1.3 2.12-2zM30.95 27.29v-.3H14.98v2h11.68c1.28-.75 2.72-1.37 4.3-1.7zM14.98 23h15.97v2H14.98zM14.98 19h15.97v2H14.98zM14.98 15h15.97v2H14.98zM11 15h1.98v2h-2zM11 19h1.98v2h-2zM11 31h1.98v2h-2zM11 23h1.98v2h-2zM11 27h1.98v2h-2z"/></g><ellipse cx="33.528" cy="37" fill="#00ACC1" rx="4.99" ry="5"/><circle cx="33.528" cy="37" r="1.996" fill="#006064"/></svg>