<svg xmlns="http://www.w3.org/2000/svg" width="48" height="48"><path fill="#78909C" d="M6 28v10c0 2.2 1.8 4 4 4h28c2.2 0 4-1.8 4-4V28H6z"/><path fill="#455A64" d="M42 28c0 2.2-1.8 4-4 4H10c-2.2 0-4-1.8-4-4l3-18c.25-2.13 1.8-4 4-4h22c2.2 0 3.66 1.78 4 4l3 18z"/><circle cx="35" cy="37" r="2" fill="#64DD17"/><path fill="#64B5F6" d="M26.34 21.34c.4-.8.4-1.75 0-2.56-.14-.3-.32-.6-.57-.84l-.7-.7c-.26-.26-.55-.44-.85-.58l-.57.57c-.4.4-.4 1.03 0 1.42l.7.7c.4.4.4 1.03 0 1.42l-.57.58L20.1 25c-.38.4-1 .4-1.4 0l-.7-.7c-.4-.4-.4-1.02 0-1.4l3.66-3.68c-.4-.8-.4-1.75 0-2.56-.3.14-.6.32-.84.57l-4.24 4.24c-1.17 1.17-1.17 3.08 0 4.25l.7.7c1.17 1.17 3.08 1.17 4.25 0l4.24-4.24c.25-.25.43-.53.57-.84z"/><path fill="#E3F2FD" d="M31.43 12.28l-.7-.7c-1.18-1.18-3.1-1.18-4.26 0l-4.24 4.24c-.25.25-.43.53-.57.83-.4.82-.4 1.76 0 2.57.14.3.32.6.57.84l.7.7c.26.26.55.44.85.58l.57-.57c.4-.4.4-1.03 0-1.42l-.7-.7c-.4-.4-.4-1.03 0-1.42l.57-.58L27.9 13c.38-.4 1-.4 1.4 0l.7.7c.4.4.4 1.02 0 1.4l-3.66 3.68c.4.8.4 1.75 0 2.56.3-.14.6-.32.84-.57l4.25-4.24c1.16-1.18 1.16-3.08 0-4.25z"/></svg>