<svg xmlns="http://www.w3.org/2000/svg" viewBox="0 0 48 48" enable-background="new 0 0 48 48"><g fill="#1976D2"><path d="M32 12v-2c0-4.4-3.6-8-8-8s-8 3.6-8 8v2c0 4.4 3.6 8 8 8s8-3.6 8-8zm-4 0c0 2.2-1.8 4-4 4s-4-1.8-4-4v-2c0-2.2 1.8-4 4-4s4 1.8 4 4v2zM16 28v2c0 4.4 3.6 8 8 8s8-3.6 8-8v-2c0-4.4-3.6-8-8-8s-8 3.6-8 8zm4 0c0-2.2 1.8-4 4-4s4 1.8 4 4v2c0 2.2-1.8 4-4 4s-4-1.8-4-4v-2z"/></g><g fill="#42A5F5"><path d="M24 13c-1.1 0-2 .9-2 2v10c0 1.1.9 2 2 2s2-.9 2-2V15c0-1.1-.9-2-2-2zM24 31c-1.1 0-2 .9-2 2v9h4v-9c0-1.1-.9-2-2-2zM24 46l-5-6h10z"/></g></svg>