<svg xmlns="http://www.w3.org/2000/svg" width="48" height="48"><g fill="#891212"><path d="M23.5 27.5l-18 7v-15l18-7zM41.5 19.5l-18-7v15l18 7z"/></g><circle cx="23" cy="18" r="2.5" fill="#891212"/><path fill="#90CAF9" d="M23 5.5c-6.9 0-12.5 5.6-12.5 12.5S16.1 30.5 23 30.5 35.5 24.9 35.5 18 29.9 5.5 23 5.5zm0 14.8c-1.27 0-2.3-1.03-2.3-2.3s1.03-2.3 2.3-2.3c1.27 0 2.3 1.03 2.3 2.3s-1.03 2.3-2.3 2.3z"/><g fill="#CFE8F9"><path d="M20.18 19.34l-7.68 5.5c.88 1.32 2.52 2.94 4.2 4l5.42-7.53c-.94-.28-1.66-1.02-1.94-1.96zM29.77 7.5l-5.97 8.16c.94.27 1.68.98 2 1.9l8.1-5.65c-1-1.78-2.42-3.3-4.13-4.4z"/></g><path fill="#F44336" d="M23.5 26.5l-18-7v15l18 7z"/><path fill="#C62828" d="M41.5 34.5l-18 7v-15l18-7z"/><path fill="#1E88E5" d="M23 14.5c-1.93 0-3.5 1.57-3.5 3.5s1.57 3.5 3.5 3.5 3.5-1.57 3.5-3.5-1.57-3.5-3.5-3.5zm0 5c-.83 0-1.5-.67-1.5-1.5s.67-1.5 1.5-1.5 1.5.67 1.5 1.5-.67 1.5-1.5 1.5z"/></svg>