<svg xmlns="http://www.w3.org/2000/svg" viewBox="0 0 48 48" enable-background="new 0 0 48 48"><circle cx="24" cy="22" r="18" fill="#80DEEA"/><path fill="#1976D2" d="M18 9l-5 4.2V33h10V13l-5-4zm-1 8h-2v-2h2v2zm4 0h-2v-2h2v2zm-4 4h-2v-2h2v2zm4 0h-2v-2h2v2zm-4 4h-2v-2h2v2zm4 0h-2v-2h2v2zm-4 4h-2v-2h2v2zm4 0h-2v-2h2v2z"/><g fill="#E0F7FA"><circle cx="31" cy="13" r="1"/><circle cx="33" cy="11" r="1"/><circle cx="35" cy="17" r="1"/><circle cx="33" cy="19" r="1"/><circle cx="37" cy="19" r="1"/><circle cx="39" cy="21" r="1"/><circle cx="27" cy="9" r="1"/><circle cx="31" cy="9" r="1"/><circle cx="29" cy="11" r="1"/><circle cx="29" cy="15" r="1"/><circle cx="35" cy="21" r="1"/><circle cx="31" cy="17" r="1"/><circle cx="33" cy="15" r="1"/><circle cx="35" cy="13" r="1"/><circle cx="37" cy="15" r="1"/><circle cx="39" cy="17" r="1"/></g><g fill="#2196F3"><circle cx="14" cy="33" r="3"/><circle cx="18" cy="35" r="3"/><circle cx="22" cy="33" r="3"/><path d="M33 30s-.2 0 0 0c-.6-1.2-1.6-2-3-2-.4 0-1 .2-1.4.4C28 27 26.6 26 25 26c-2.2 0-4 1.8-4 4 0 .8 0 3.2 0 4 0 2.2 1.8 4 4 4s5.8 0 8 0 4-1.8 4-4-1.8-4-4-4z"/></g><path fill="#5C6BC0" d="M8 34h32v4H8z"/><path fill="#3F51B5" d="M6 38h36v4H6z"/></svg>