<svg xmlns="http://www.w3.org/2000/svg" viewBox="0 0 48 48" enable-background="new 0 0 48 48"><path fill="#FF9800" d="M9 13h10v22H9z"/><path fill="#90A4AE" d="M9 35h10v4H9z"/><path fill="#E57373" d="M19 39H9v2c0 1.1.9 2 2 2h6c1.1 0 2-.9 2-2v-2z"/><path fill="#FFA726" d="M12 13h4v22h-4z"/><path fill="#FFC107" d="M19 13l-2.5-4h-5L9 13z"/><path fill="#37474F" d="M14 5l-2.5 4h5z"/><path fill="#9EB0B9" d="M12 35h4v4h-4z"/><path fill="#E78080" d="M12 39h4v4h-4z"/><path fill="#FFD54F" d="M15 9h-2l-1 4h4z"/><path fill="#2196F3" d="M37 5H27c-1.1 0-2 .9-2 2v34c0 1.1.9 2 2 2h10c1.1 0 2-.9 2-2V7c0-1.1-.9-2-2-2zm-5 6c-1.1 0-2-.9-2-2s.9-2 2-2 2 .9 2 2-.9 2-2 2z"/><g fill="#1565C0"><path d="M25 15h5v2h-5zM25 19h3v2h-3zM25 23h5v2h-5zM25 27h3v2h-3zM25 31h5v2h-5zM25 35h3v2h-3zM25 39h5v2h-5z"/></g></svg>