<svg xmlns="http://www.w3.org/2000/svg" width="48" height="48"><path fill="#CFD8DC" d="M3 16h42v14H3z"/><g fill="#37474F"><path d="M38.52 17H27.48C25.95 18.54 25 20.66 25 23s.95 4.46 2.48 6h11.04c1.53-1.54 2.48-3.66 2.48-6s-.95-4.46-2.48-6zM33 25c-1.1 0-2-.9-2-2s.9-2 2-2 2 .9 2 2-.9 2-2 2zM21.52 17H9.48C7.95 18.54 7 20.66 7 23s.95 4.46 2.48 6h12.04c1.53-1.54 2.48-3.66 2.48-6s-.95-4.46-2.48-6zM15 25c-1.1 0-2-.9-2-2s.9-2 2-2 2 .9 2 2-.9 2-2 2z"/></g><g fill="#546E7A"><path d="M2 11v25h44V11H2zm42 18H4V17h40v12zM16 16h16v14H16z"/></g><path fill="#FAFAFA" d="M18 17h12v12H18z"/><path fill="#FF1744" d="M18 25h12v4H18z"/></svg>