<svg xmlns="http://www.w3.org/2000/svg" viewBox="0 0 48 48" enable-background="new 0 0 48 48"><path fill="#455A64" d="M6 9h36c1.1 0 2 .9 2 2v23c0 1.1-.9 2-2 2H6c-1.1 0-2-.9-2-2V11c0-1.1.9-2 2-2z"/><path fill="#EA80FC" d="M6 11h36v23H6z"/><path fill="#607D8B" d="M43 39H5c-1.7 0-3-1.3-3-3v-1h44v1c0 1.7-1.3 3-3 3z"/><path fill="#F4BAFD" d="M12 31v3h24v-3H12zm2.2 2.2h-1.5v-1.5h1.5v1.5zm3 0h-1.5v-1.5h1.5v1.5zm3 0h-1.5v-1.5h1.5v1.5zm3 0h-1.5v-1.5h1.5v1.5zm3 0h-1.5v-1.5h1.5v1.5zm3 0h-1.5v-1.5h1.5v1.5zm3 0h-1.5v-1.5h1.5v1.5zm3 0h-1.5v-1.5h1.5v1.5z"/></svg>