<svg xmlns="http://www.w3.org/2000/svg" width="48" height="48"><path fill="#78909C" d="M40 22H8c-1.1 0-2 .9-2 2v12.6c0 .24.1.5.3.7l5 5.4c.2.2.44.3.7.3h24c.26 0 .5-.1.7-.3l5-5.4c.2-.2.3-.46.3-.7V24c0-1.1-.9-2-2-2z"/><path fill="#37474F" d="M8 29h32v7H8z"/><path fill="#FDD835" d="M10 29h3v2h-3zM15 29h3v2h-3zM20 29h3v2h-3zM25 29h3v2h-3zM30 29h3v2h-3zM35 29h3v2h-3zM10 34h3v2h-3zM15 34h3v2h-3zM20 34h3v2h-3zM25 34h3v2h-3zM30 34h3v2h-3zM35 34h3v2h-3z"/><path fill="#2196F3" d="M24.44 4h3.38l-4.26 6H28l-4.62 6.1 1.95.7-5.15 3.2.9-5.7 1.05 1.26L24.27 12H20z"/></svg>