<svg xmlns="http://www.w3.org/2000/svg" width="48" height="48"><g fill="#78909C"><path d="M10 26c0 1.66-1.34 3-3 3H6c-1.66 0-3-1.34-3-3v-1c0-1.66 1.34-3 3-3h1c1.66 0 3 1.34 3 3v1zM45 26c0 1.66-1.34 3-3 3h-1c-1.66 0-3-1.34-3-3v-1c0-1.66 1.34-3 3-3h1c1.66 0 3 1.34 3 3v1zM42 12c0-.26-.1-.5-.3-.7l-5-5c-.2-.2-.44-.3-.7-.3H12c-.26 0-.5.1-.7.3l-5 5c-.2.2-.3.44-.3.7v29c0 .55.45 1 1 1h34c.55 0 1-.45 1-1V12z"/></g><path fill="#37474F" d="M35 9H13l-4 4v26h30V13z"/><path fill="#FDD835" d="M24 18c-3.3 0-6 2.7-6 6s2.7 6 6 6 6-2.7 6-6-2.7-6-6-6zm0 8c-1.1 0-2-.9-2-2s.9-2 2-2 2 .9 2 2-.9 2-2 2z"/></svg>