<svg xmlns="http://www.w3.org/2000/svg" width="48" height="48"><path fill="#01579B" d="M42 37c0 2.76-2.24 5-5 5H11c-2.76 0-5-2.24-5-5V11c0-2.76 2.24-5 5-5h26c2.76 0 5 2.24 5 5v26z"/><path fill="#fff" d="M32 34.9c0 .1-.04.17-.1.24-.1.08-2.18 1.86-6.95 1.86-5.73 0-5.9-6.4-5.9-7.14L19 22h-2.67c-.18 0-.33-.15-.33-.33v-3.1c0-.14.08-.26.2-.3.06-.03 5.18-2.1 5.18-6.94 0-.2.14-.33.33-.33h2.97c.18 0 .33.15.33.33V18h5.67c.18 0 .33.15.33.33v3.34c0 .2-.15.33-.33.33H25v7.7c0 .1.32 2.53 2.76 2.53 2.02 0 3.72-1.04 3.74-1.05.1-.07.23-.07.33 0 .1.04.17.15.17.27v3.44z"/></svg>