<svg xmlns="http://www.w3.org/2000/svg" width="48" height="48"><path fill="#03A9F4" d="M42 12.43c-1.32.6-2.75.98-4.25 1.16 1.53-.9 2.7-2.36 3.25-4.07-1.42.84-3 1.46-4.7 1.78C34.98 9.9 33.06 9 30.94 9c-4.08 0-7.4 3.28-7.4 7.32 0 .57.08 1.13.2 1.67-6.14-.32-11.58-3.24-15.22-7.66-.63 1.08-1 2.35-1 3.68 0 2.54 1.3 4.78 3.3 6.1-1.22-.04-2.36-.38-3.36-.92 0 .03 0 .06 0 .1 0 3.54 2.55 6.5 5.93 7.17-.62.17-1.27.26-1.94.26-.48 0-.95-.05-1.4-.13.94 2.9 3.67 5.02 6.9 5.08-2.53 1.97-5.7 3.14-9.17 3.14-.6 0-1.2-.03-1.76-.1C9.27 36.8 13.15 38 17.32 38c13.6 0 21.02-11.16 21.02-20.83 0-.32 0-.64-.03-.95 1.46-1.02 2.7-2.3 3.7-3.8"/></svg>