<svg xmlns="http://www.w3.org/2000/svg" width="48" height="48"><path fill="#1565C0" d="M38.7 24.36h-2.2l-.45 2.26s2.27 0 2.5 0c.24 0 1.55-.17 1.55-1.27 0-1.08-1.4-1-1.4-1zm.82-4.02h-2.15l-.37 1.8s2.16 0 2.33 0c.2 0 1.12-.15 1.12-1 0-.87-.93-.8-.93-.8zm4.54 2.77s1.44-.73 1.44-3.08c0-3.72-4.38-3.52-4.38-3.52h-2.86l.67-3s-12.4 0-20.97 0c-9.34 0-12.16 6.77-12.16 6.77l-.06.23h-3.2l-1.04 6h3.37v.14S4.6 33.5 15.33 33.5c10.75 0 19.05 0 19.05 0l.68-3c.84 0 2.2 0 4.38 0 4.73 0 5.6-3.35 5.6-4.9 0-1.76-.98-2.5-.98-2.5z"/><path fill="#fff" d="M38.7 24.36h-2.2l-.45 2.26s2.27 0 2.5 0c.24 0 1.55-.17 1.55-1.27 0-1.08-1.4-1-1.4-1zm.82-4.02h-2.15l-.37 1.8s2.16 0 2.33 0c.2 0 1.12-.15 1.12-1 0-.87-.93-.8-.93-.8zm-25.5 9.16c-5.3 0-5.3-3.62-5.24-4 .07-.35 1.8-8 1.8-8h3.83l-1.35 6.35s-.97 2.73 1.26 2.73c2.1 0 2.34-2.53 2.34-2.53l1.47-6.55h3.85l-1.6 6.98s-.1 5.02-6.33 5.02zm12.08.02c-2.68 0-4.96-1.26-4.86-4.14h3.44c0 .58.1 1.63 1.63 1.63.64 0 1.7-.26 1.7-1.13 0-1.63-5.6-.78-5.6-4.57 0-2.06 1.9-3.78 5-3.78 4.97 0 4.6 3.75 4.6 3.75h-3.36c0-1.05-.67-1.2-1.47-1.2-.8 0-1.37.34-1.37.94 0 1.48 5.64.46 5.64 4.54 0 1.77-1.43 3.98-5.34 3.98zm13.27-.02c-.42 0-7.52 0-7.52 0l2.6-12s5.45 0 6.56 0c1.12 0 3.44.23 3.44 2.54 0 2.6-2.23 3.02-2.23 3.02s1.77.4 1.77 2.47c0 3.93-4.2 3.97-4.6 3.97z"/></svg>