<svg xmlns="http://www.w3.org/2000/svg" width="48" height="48"><path fill="#3F51B5" d="M42 13c0 .55-.45 1-1 1H7c-.55 0-1-.45-1-1V7c0-.55.45-1 1-1h34c.55 0 1 .45 1 1v6z"/><path fill="#BBDEFB" d="M6 11h36v31H6z"/><g fill="#1976D2"><path d="M13.1 25.9c0-1.15.14-2.25.42-3.32.28-1.06.7-2 1.26-2.84.56-.84 1.16-1.42 1.8-1.74l.42 1.2c-.6.55-1.08 1.4-1.44 2.52-.35 1.13-.53 2.44-.55 3.93v.46c0 1.56.2 2.9.53 4.1s.84 2.03 1.47 2.6l-.43 1.2c-.63-.32-1.22-.9-1.77-1.7s-.97-1.76-1.26-2.8c-.28-1.05-.43-2.14-.44-3.28v-.3zM24 24.78L25.8 21h3.13l-3.17 5.45L29 32h-3.15L24 28.15 22.16 32H19l3.24-5.55L19.07 21h3.1L24 24.78zM35 26.1c0 1.2-.16 2.33-.48 3.4-.32 1.07-.76 2.02-1.32 2.82-.57.8-1.16 1.37-1.8 1.68l-.4-1.2c.6-.55 1.08-1.4 1.43-2.57.36-1.15.54-2.46.55-3.93v-.4c0-1.5-.18-2.85-.53-4.03-.35-1.18-.83-2.07-1.46-2.68l.4-1.2c.42.2.84.54 1.27 1 .43.47.82 1.05 1.17 1.74.34.7.63 1.47.84 2.34.2.86.32 1.86.32 3z"/></g></svg>