<svg xmlns="http://www.w3.org/2000/svg" width="48" height="48"><path fill="#1565C0" d="M3 12v23h42V12H3z"/><path fill="#fff" d="M13.73 33h-3.6L5.2 14H9l3.86 16.04s2.88-14.9 2.88-15.3c0-.44-.4-.72-.4-.74-.02.02 1.66 0 1.66 0l-3.48 18.03.2.97zM29 33l-3 .02V26.2l-1.7.8H22v6h-3v-5.97h-.77l.75-1.38L19 14h3l.03 11H26V14h3v19zm5.6-13.83c.4.5 6.54 4.86 7.12 5.67.6.83.9 1.8.9 2.94 0 1.5-.42 2.9-1.5 3.9C40.1 32.7 38.63 33 37 33c0 0-5.44 0-5.55 0L31 31.75s7.25.4 8.06-.84c.54-.8.53-1.3.53-2.24 0-.84-.28-1.57-.85-2.2-.38-.38-1.2-1.02-2.44-1.85l-2.2-1.45c-.66-.46-1.2-.92-1.6-1.4-.78-.9-1.16-1.92-1.16-3.02 0-1.44.45-2.67 1.35-3.63.94-1 2.32-1.1 3.65-1.1.2 0 6.7 0 6.7 0l-.5 1.3s-6.13-.15-7.43.67c-.5.33-1.06.82-1.06 1.53 0 .66.17 1.2.55 1.67z"/></svg>