<svg xmlns="http://www.w3.org/2000/svg" width="48" height="48"><path fill="#0288D1" d="M42 37c0 2.76-2.24 5-5 5H11c-2.76 0-5-2.24-5-5V11c0-2.76 2.24-5 5-5h26c2.76 0 5 2.24 5 5v26z"/><path fill="#fff" d="M33.19 27.36c2.07 1.95 2.5 2.9 2.57 3.02.86 1.44-.96 1.56-.96 1.56l-3.46.05s-.75.14-1.73-.55c-1.3-.9-3.06-3.24-4.02-2.93-.96.3-.66 2.76-.66 2.76s0 .3-.2.54c-.25.26-.72.16-.72.16h-1s-3.7.02-6.73-3.16c-3.3-3.47-6.05-9.95-6.05-9.95s-.16-.4.02-.63c.2-.24.76-.24.76-.24h3.7s.36.05.6.24c.22.15.34.44.34.44s.44 1.2 1.24 2.6c1.55 2.7 2.28 3.3 2.8 3 .77-.42.54-3.83.54-3.83s0-1.24-.4-1.8c-.3-.4-.88-.54-1.14-.57-.2-.03.13-.52.58-.74.67-.33 1.85-.35 3.24-.34 1.1.02 1.5 0 1.5 0 1.28.3.85 1.52.85 4.42 0 .92-.17 2.23.5 2.66.28.2 1.3.22 3.04-2.77.82-1.4 1.47-2.74 1.47-2.74s.14-.3.35-.43c.22-.13.5-.13.5-.13l3.92.02s1.17-.15 1.36.4c.2.55-.48 1.54-2.08 3.7-2.62 3.53-2.9 3.2-.73 5.24z"/></svg>