<svg xmlns="http://www.w3.org/2000/svg" width="48" height="48"><path fill="#0288D1" d="M42 37c0 2.76-2.24 5-5 5H11c-2.76 0-5-2.24-5-5V11c0-2.76 2.24-5 5-5h26c2.76 0 5 2.24 5 5v26z"/><path fill="#fff" d="M31.9 24.63c-.74-.8-1.73-1.33-2.95-1.6l-.7-.1c.87-.35 1.54-.9 2.02-1.68.5-.76.73-1.63.73-2.6C31 14 24.9 14 23.45 14H17v20h8.06c1.38 0 2.5-.13 3.4-.38.9-.25 1.73-.67 2.47-1.26.63-.5 1.14-1.1 1.5-1.86.38-.76.57-1.63.57-2.63 0-1.35-.37-2.43-1.1-3.24zM22 18h1.82S26 17.94 26 20s-2.1 2-2.1 2H22v-4zm2.96 12c-.5.02-1.4 0-2.7 0H22v-5h3.04c.53 0 2.96-.08 2.96 2.46s-2.55 2.52-3.04 2.54z"/></svg>