<svg xmlns="http://www.w3.org/2000/svg" width="48" height="48"><path fill="#78909C" d="M46 32c0 1.1-.9 2-2 2H4c-1.1 0-2-.9-2-2V8c0-1.1.9-2 2-2h40c1.1 0 2 .9 2 2v24z"/><path fill="#37474F" d="M10 10h32v20H10z"/><path fill="#455A64" d="M2 10v20h8V10H2zm6 18H4v-4h4v4zm-2-6c-1.1 0-2-.9-2-2s.9-2 2-2 2 .9 2 2-.9 2-2 2zm2-6H4v-4h4v4z"/><g fill="#CFD8DC"><path d="M12 12h1v2h-1zM12 12h2v1h-2zM36 26h1v2h-1zM35 27h2v1h-2zM12 27h2v1h-2zM12 26h1v2h-1zM35 12h2v1h-2zM36 12h1v2h-1z"/></g><path fill="#78909C" d="M20.2 20.8c.4.38.4 1 0 1.4-.4.4-1.02.4-1.4 0l-1.43-1.4c-.4-.4-.4-1.04 0-1.43.4-.4 1.03-.4 1.42 0l1.4 1.42z"/><path fill="#64B5F6" d="M39.3 38.47l-2.83 2.82S25.14 29.97 23.73 28.56s-3.53-2.14-3.53-2.14l4.24-4.23s.7 2.12 2.12 3.54c1.42 1.4 12.73 12.73 12.73 12.73z"/><path fill="#1E88E5" d="M18.08 21.5l2.12 4.94 4.24-4.24-4.95-2.12z"/><path fill="#455A64" d="M40 39.17v1.42L38.6 42h-1.43l-.7-.7 2.82-2.83z"/><path fill="#37474F" d="M27.27 27.86c.4.4.4 1.02 0 1.4-.4.4-1.02.4-1.4 0l-2.13-2.1c-.4-.4-.4-1.03 0-1.42.4-.4 1.02-.4 1.4 0l2.13 2.12z"/></svg>