<svg xmlns="http://www.w3.org/2000/svg" width="48" height="48"><circle cx="24" cy="24" r="19" fill="#00ACC1"/><circle cx="24" cy="24" r="15" fill="#eee"/><g fill="#78909C"><path d="M23 38.95c.33.02.66.05 1 .05s.67-.03 1-.05V36h-2v2.95zM36 25h2.95c.02-.33.05-.66.05-1s-.03-.67-.05-1H36v2zM9.05 25H12v-2H9.05c-.02.33-.05.66-.05 1s.03.67.05 1z"/></g><path d="M31.66 30.27L29.93 32l-6.8-6.8 1.74-1.73zM27 24c0 1.66-1.34 3-3 3s-3-1.34-3-3 1.34-3 3-3 3 1.34 3 3"/><path d="M23 11h2v10.34h-2z"/><path fill="#00ACC1" d="M25 24c0 .55-.45 1-1 1s-1-.45-1-1 .45-1 1-1 1 .45 1 1"/></svg>