<svg xmlns="http://www.w3.org/2000/svg" width="48" height="48"><path fill="#00BCD4" d="M42 37c0 2.76-2.24 5-5 5H11c-2.76 0-5-2.24-5-5V11c0-2.76 2.24-5 5-5h26c2.76 0 5 2.24 5 5v26z"/><path fill="#fff" d="M12.06 26.82l1.07-1.78h1.8l-1.8 2.92 1.9 3.04H13.2l-1.13-1.87L10.94 31H9.13L11 27.96l-1.8-2.93h1.82l1.04 1.8zM23.1 21.7c1.17 0 2.18.42 2.9 1.28.72.86 1.08 1.98 1.08 3.38 0 .87-.2 1.66-.63 2.4-.42.7-1 1.28-1.77 1.68-.75.4-1.6.56-2.5.56-1 0-1.9-.16-2.68-.6-.78-.44-1.4-1.07-1.83-1.9-.43-.8-.66-1.75-.67-2.8V24.4c0-1.4.3-2.66.93-3.78.62-1.12 1.5-2 2.65-2.63s2.43-.95 3.83-.95h.6v2.48h-.24c-1.22 0-2.2.3-3 .85-.78.57-1.46 1.35-1.64 2.35 0 0 .8-1.04 2.98-1.04zm-1.13 2.42c-.43 0-.8.1-1.08.28-.3.2-.78.8-.78 1.65 0 1.57.74 2.57 1.97 2.57.48 0 .9-.2 1.23-.64.33-.43.5-.97.5-1.6 0-.67-.18-1.22-.5-1.63-.35-.42-.8-.63-1.36-.63zM37 25h1v3h-1v3h-3v-3h-5.8l-.2-1.95 5.46-9.02V17H37v8zm-5.6 0H34v-4l-2.6 4z"/></svg>