<svg xmlns="http://www.w3.org/2000/svg" width="48" height="48"><path fill="#00BCD4" d="M42 37c0 2.76-2.24 5-5 5H11c-2.76 0-5-2.24-5-5V11c0-2.76 2.24-5 5-5h26c2.76 0 5 2.24 5 5v26z"/><path fill="#fff" d="M12.06 26.82l1.07-1.78h1.8l-1.8 2.92 1.9 3.04H13.2l-1.13-1.87L10.94 31H9.13L11 27.96l-1.8-2.93h1.82l1.04 1.8zM34.1 21.7c1.17 0 2.18.42 2.9 1.28.72.86 1.08 1.98 1.08 3.38 0 .87-.2 1.66-.63 2.4-.42.7-1 1.28-1.77 1.68-.75.4-1.6.56-2.5.56-1 0-1.9-.16-2.67-.6-.78-.44-1.4-1.07-1.83-1.9-.43-.8-.66-1.75-.67-2.8V24.4c0-1.4.3-2.66.93-3.78.62-1.12 1.5-2 2.65-2.63 1.15-.63 2.43-.95 3.83-.95h.6v2.48h-.24c-1.22 0-2.2.3-3 .85-.77.57-1.46 1.35-1.64 2.35 0 0 .8-1.04 2.98-1.04zm-1.13 2.42c-.43 0-.8.1-1.08.28-.3.2-.78.8-.78 1.65 0 1.57.74 2.57 1.97 2.57.48 0 .9-.2 1.23-.64.33-.43.5-.97.5-1.6 0-.67-.18-1.22-.5-1.63-.35-.42-.8-.63-1.36-.63zM26.71 20.84c.02.66-.16 1.24-.5 1.74-.35.5-.82.9-1.42 1.22.68.32 1.22.75 1.62 1.3.4.55.6 1.2.6 1.96 0 1.22-.44 2.18-1.32 2.88-.9.7-2.1 1.06-3.65 1.06-1.56 0-2.78-.35-3.68-1.06-.9-.7-1.35-1.67-1.35-2.88 0-.73.2-1.37.6-1.93.38-.57.94-1 1.66-1.33-.6-.3-1.08-.7-1.43-1.22-.35-.5-.53-1.08-.53-1.74 0-1.2.43-2.13 1.27-2.8.85-.7 2-1.04 3.43-1.04 1.45 0 2.6.34 3.44 1.03.85.68 1.27 1.62 1.27 2.8zm-3.03 5.97c0-.55-.15-.98-.46-1.28-.3-.3-.7-.46-1.2-.46s-.9.15-1.2.46c-.3.3-.46.73-.46 1.3 0 .53.15.96.46 1.28.32.3.72.47 1.23.47.5 0 .9-.16 1.2-.47.3-.3.44-.74.44-1.3zM22 19.44c-.45 0-.8.14-1.02.42-.23.28-.35.66-.35 1.15 0 .5.12.88.36 1.18.22.3.57.45 1.03.45.45 0 .8-.15 1.02-.45.22-.3.34-.7.34-1.18s-.13-.87-.36-1.15c-.23-.28-.58-.42-1.04-.42z"/></svg>