<svg xmlns="http://www.w3.org/2000/svg" width="48" height="48"><path fill="#006064" d="M42 37c0 2.76-2.24 5-5 5H11c-2.76 0-5-2.24-5-5V11c0-2.76 2.24-5 5-5h26c2.76 0 5 2.24 5 5v26z"/><path fill="#fff" d="M16.65 30H12.6c-.23 0-.42-.1-.52-.27-.1-.18-.1-.4 0-.62l4.3-7.5c0-.02 0-.03 0-.04l-2.74-4.7c-.1-.2-.13-.43-.02-.6.1-.17.3-.26.55-.26h4.04c.63 0 .93.4 1.13.76 0 0 2.76 4.78 2.78 4.8-.16.3-4.35 7.66-4.35 7.66-.2.38-.5.78-1.1.78z"/><path fill="#CDDC39" d="M35.9 11.88l-8.93 15.8c0 .02 0 .03 0 .04l5.7 10.4c.1.22.1.45 0 .62-.1.17-.3.26-.53.26H28.1c-.6 0-.92-.4-1.12-.77 0 0-5.72-10.5-5.74-10.53.3-.5 8.98-15.93 8.98-15.93.22-.4.48-.77 1.1-.77h4.07c.23 0 .42.1.52.26.1.17.1.4 0 .62z"/></svg>