<svg xmlns="http://www.w3.org/2000/svg" width="48" height="48"><g fill="#455A64"><path d="M14.54 6h2.12l1.37 5.5h.14l1.3-5.5h2.15l-2.46 8.04V20h-2.1v-5.7L14.53 6zM21.52 11.92c0-.78.26-1.4.76-1.87.5-.47 1.2-.7 2.04-.7.78 0 1.4.24 1.9.74.5.47.75 1.1.75 1.88v5.24c0 .86-.24 1.54-.73 2.04-.48.5-1.15.74-2 .74-.83 0-1.48-.26-1.98-.77-.5-.5-.74-1.2-.74-2.05v-5.26zm1.93 5.45c0 .27.07.5.2.64.14.16.33.24.58.24.26 0 .45-.08.6-.23.15-.15.23-.36.23-.63v-5.52c0-.22-.08-.4-.23-.54-.15-.13-.35-.2-.6-.2-.23 0-.42.07-.56.2-.14.15-.22.33-.22.55v5.52zM33.92 9.6V20h-1.88v-1.27c-.34.42-.7.73-1.08.95-.37.2-.73.32-1.08.32-.44 0-.76-.15-.98-.45-.23-.3-.33-.75-.33-1.36V9.6h1.87v7.9c0 .23.04.4.12.5.07.1.2.17.38.17.14 0 .3-.07.52-.2.2-.15.4-.34.58-.56V9.6h1.88z"/></g><path fill="#fff" d="M38.8 26.44c0-2.34-1.94-4.24-4.33-4.24-3.4-.14-6.9-.2-10.47-.2-3.56 0-7.06.06-10.47.2-2.4 0-4.33 1.9-4.33 4.24C9.06 28.3 9 30.14 9 32c0 1.85.06 3.7.2 5.56 0 2.35 1.94 4.24 4.33 4.24 3.4.15 6.9.2 10.47.2 3.56 0 7.06-.06 10.47-.2 2.4 0 4.33-1.9 4.33-4.24.14-1.85.2-3.7.2-5.56 0-1.86-.06-3.7-.2-5.56z"/><g fill="#F44336"><path d="M33.85 30.35c-.22 0-.37.05-.46.18-.07.1-.15.3-.15.75v.77h1.2v-.77c0-.45-.1-.66-.16-.76-.1-.12-.24-.17-.45-.17zM26.86 30.4c-.08.03-.17.1-.25.18v5.88c.12.1.22.2.32.24.1.05.23.08.35.08.23 0 .3-.1.32-.13.05-.07.1-.22.1-.54v-5c0-.27-.04-.48-.14-.62-.13-.17-.4-.24-.7-.1zM38.8 26.44c0-2.34-1.94-4.24-4.33-4.24-3.4-.14-6.9-.2-10.47-.2-3.56 0-7.06.06-10.47.2-2.4 0-4.33 1.9-4.33 4.24C9.06 28.3 9 30.14 9 32c0 1.85.06 3.7.2 5.56 0 2.35 1.94 4.24 4.33 4.24 3.4.15 6.9.2 10.47.2 3.56 0 7.06-.06 10.47-.2 2.4 0 4.33-1.9 4.33-4.24.14-1.85.2-3.7.2-5.56 0-1.86-.06-3.7-.2-5.56zM15.7 38.38c0 .1-.1.2-.2.2h-2.05c-.12 0-.2-.1-.2-.2V27.35h-1.92c-.12 0-.2-.1-.2-.2v-1.9c0-.12.08-.2.2-.2h6.3c.1 0 .2.08.2.2v1.9c0 .1-.1.2-.2.2H15.7v11.03zm7.3 0c0 .1-.1.2-.2.2h-1.83c-.12 0-.2-.1-.2-.2v-.55c-.25.23-.5.42-.75.56-.4.22-.77.33-1.16.33-.48 0-.86-.18-1.1-.52-.25-.3-.37-.8-.37-1.4v-8.1c0-.12.08-.22.2-.22h1.8c.13 0 .22.1.22.2v7.44c0 .24.04.34.07.38 0 .02.04.07.2.07.05 0 .17-.03.4-.17.16-.12.32-.26.46-.43V28.7c0-.12.1-.22.2-.22h1.83c.1 0 .2.1.2.2v9.7zm7-2c0 .73-.16 1.3-.47 1.7-.33.42-.8.63-1.4.63-.38 0-.73-.07-1.05-.23-.16-.08-.32-.2-.48-.32v.23c0 .12-.1.2-.2.2h-1.84c-.1 0-.2-.08-.2-.2V25.24c0-.1.1-.2.2-.2h1.84c.1 0 .2.1.2.2v3.72c.15-.14.3-.25.48-.34.3-.17.62-.26.94-.26.64 0 1.14.24 1.48.7.33.46.5 1.1.5 1.94v5.37zm6.73-2.62c0 .12-.1.2-.2.2h-3.28v1.63c0 .58.08.84.15.94.05.1.15.2.43.2.24 0 .4-.05.47-.16.04-.06.14-.28.14-1v-.67c0-.1.1-.2.2-.2h1.88c.12 0 .2.1.2.2v.74c0 1.05-.24 1.85-.73 2.4-.5.53-1.24.8-2.2.8-.88 0-1.58-.3-2.1-.86-.5-.57-.74-1.36-.74-2.34V31.3c0-.9.28-1.64.83-2.2.54-.57 1.26-.86 2.13-.86.9 0 1.6.27 2.07.8.48.53.73 1.3.73 2.25v2.47z"/></g></svg>